<svg width="16" height="16" viewBox="0 0 16 16" fill="none" xmlns="http://www.w3.org/2000/svg">
<g id="16/input_clear_m_16">
<path id="Union" fill-rule="evenodd" clip-rule="evenodd" d="M3.78431 3.08859L3.85355 3.14645L8 7.293L12.1464 3.14645C12.3417 2.95118 12.6583 2.95118 12.8536 3.14645C13.0271 3.32001 13.0464 3.58944 12.9114 3.78431L12.8536 3.85355L8.707 8L12.8536 12.1464C13.0488 12.3417 13.0488 12.6583 12.8536 12.8536C12.68 13.0271 12.4106 13.0464 12.2157 12.9114L12.1464 12.8536L8 8.707L3.85355 12.8536C3.65829 13.0488 3.34171 13.0488 3.14645 12.8536C2.97288 12.68 2.9536 12.4106 3.08859 12.2157L3.14645 12.1464L7.293 8L3.14645 3.85355C2.95118 3.65829 2.95118 3.34171 3.14645 3.14645C3.29832 2.99458 3.52358 2.96083 3.70807 3.0452L3.78431 3.08859Z" fill="#6D7582"/>
</g>
</svg>
