<svg width="24" height="24" viewBox="0 0 24 24" fill="none" xmlns="http://www.w3.org/2000/svg">
<rect opacity="0.1" width="24" height="24" rx="5.29231" fill="url(#paint0_linear_118_19823)"/>
<path fill-rule="evenodd" clip-rule="evenodd" d="M6.62868 6.38281H17.3729C18.0793 6.38281 18.6519 6.95547 18.6519 7.66188V13.8014C18.6519 14.5078 18.0793 15.0805 17.3729 15.0805H6.62868C5.92227 15.0805 5.34961 14.5078 5.34961 13.8014V7.66188C5.34961 6.95547 5.92227 6.38281 6.62868 6.38281ZM14.4 11.0769C14.6667 10.9229 14.6667 10.538 14.4 10.3841L11.1 8.4788C10.8333 8.32484 10.5 8.51729 10.5 8.82521V12.6357C10.5 12.9436 10.8333 13.1361 11.1 12.9821L14.4 11.0769Z" fill="url(#paint1_linear_118_19823)"/>
<path d="M15.5826 15.8477H8.41979C7.99594 15.8477 7.65234 16.1913 7.65234 16.6151C7.65234 17.0389 7.99594 17.3825 8.41979 17.3825H15.5826C16.0064 17.3825 16.35 17.0389 16.35 16.6151C16.35 16.1913 16.0064 15.8477 15.5826 15.8477Z" fill="url(#paint2_linear_118_19823)"/>
<defs>
<linearGradient id="paint0_linear_118_19823" x1="24.4459" y1="41.75" x2="-3.09389" y2="40.2468" gradientUnits="userSpaceOnUse">
<stop offset="0.0404752" stop-color="#894EF8"/>
<stop offset="0.488332" stop-color="#2567FF"/>
<stop offset="1" stop-color="#45C5FF"/>
</linearGradient>
<linearGradient id="paint1_linear_118_19823" x1="18.8991" y1="21.5131" x2="3.69526" y2="20.2439" gradientUnits="userSpaceOnUse">
<stop offset="0.0404752" stop-color="#894EF8"/>
<stop offset="0.488332" stop-color="#2567FF"/>
<stop offset="1" stop-color="#45C5FF"/>
</linearGradient>
<linearGradient id="paint2_linear_118_19823" x1="16.5116" y1="18.5177" x2="7.37545" y2="15.6918" gradientUnits="userSpaceOnUse">
<stop offset="0.0404752" stop-color="#894EF8"/>
<stop offset="0.488332" stop-color="#2567FF"/>
<stop offset="1" stop-color="#45C5FF"/>
</linearGradient>
</defs>
</svg>
