<svg width="16" height="16" viewBox="0 0 16 16" fill="none" xmlns="http://www.w3.org/2000/svg">
<g clip-path="url(#clip0_2487_307215)">
<path d="M1.78298 2.35609C2.59978 1.39117 3.78773 0.803589 5.21427 0.803589C6.0656 0.803589 7.12654 1.12267 7.99774 1.84153C8.86949 1.12071 9.93812 0.803589 10.7857 0.803589C12.2122 0.803589 13.4002 1.39117 14.217 2.35609C15.0213 3.30627 15.4286 4.57432 15.4286 5.91073C15.4286 8.30564 14.4097 10.0495 13.0414 11.4533C12.0435 12.477 10.8003 13.371 9.63707 14.2074L9.63706 14.2074C9.26505 14.4749 8.90122 14.7365 8.55621 14.9946L7.99962 15.4109L7.44329 14.9942C7.09669 14.7346 6.73086 14.4714 6.35668 14.2021L6.35667 14.2021C5.19649 13.3673 3.95612 12.4748 2.96017 11.4535C1.59148 10.0499 0.571411 8.30596 0.571411 5.91073C0.571411 4.57432 0.978645 3.30627 1.78298 2.35609Z" fill="#FF4D6D"/>
</g>
<defs>
<clipPath id="clip0_2487_307215">
<rect width="16" height="16" fill="white"/>
</clipPath>
</defs>
</svg>
