<svg viewBox="0 0 240 120" fill="none" xmlns="http://www.w3.org/2000/svg">
<path fill-rule="evenodd" clip-rule="evenodd" d="M113.318 20.9777L117.981 12.9008L122.644 20.9777H118.788V84.2885H216.474V80.4329L224.551 85.0961L216.474 89.7594V85.9038H117.173V20.9777H113.318Z" fill="white"/>
<path d="M129.231 62.3077H146.041V72.8116H129.231V62.3077Z" fill="#FF8300"/>
<path d="M105.625 19.4584C102.622 17.88 87.6085 21.0365 86.1862 29.5598L87.9246 89.065C99.7775 98.5353 126.043 115.203 136.284 106.112C149.085 94.7472 138.497 77.3849 127.276 76.9114C129.12 74.0703 132.017 67.6937 128.856 64.9157C130.279 64.6 133.06 62.4534 132.807 56.3924C132.491 48.8162 117.004 49.4475 113.211 44.3967C109.418 39.3458 119.532 33.6636 110.524 27.3501C110.524 25.1401 108.628 21.0368 105.625 19.4584Z" fill="url(#paint0_linear_2129_4370)"/>
<path d="M105.625 19.4584C102.622 17.88 87.6085 21.0365 86.1862 29.5598L87.9246 89.065C99.7775 98.5353 126.043 115.203 136.284 106.112C149.085 94.7472 138.497 77.3849 127.276 76.9114C129.12 74.0703 132.017 67.6937 128.856 64.9157C130.279 64.6 133.06 62.4534 132.807 56.3924C132.491 48.8162 117.004 49.4475 113.211 44.3967C109.418 39.3458 119.532 33.6636 110.524 27.3501C110.524 25.1401 108.628 21.0368 105.625 19.4584Z" fill="url(#paint1_radial_2129_4370)"/>
<path d="M105.625 19.4584C102.622 17.88 87.6085 21.0365 86.1862 29.5598L87.9246 89.065C99.7775 98.5353 126.043 115.203 136.284 106.112C149.085 94.7472 138.497 77.3849 127.276 76.9114C129.12 74.0703 132.017 67.6937 128.856 64.9157C130.279 64.6 133.06 62.4534 132.807 56.3924C132.491 48.8162 117.004 49.4475 113.211 44.3967C109.418 39.3458 119.532 33.6636 110.524 27.3501C110.524 25.1401 108.628 21.0368 105.625 19.4584Z" fill="url(#paint2_radial_2129_4370)"/>
<path d="M105.625 19.4584C102.622 17.88 87.6085 21.0365 86.1862 29.5598L87.9246 89.065C99.7775 98.5353 126.043 115.203 136.284 106.112C149.085 94.7472 138.497 77.3849 127.276 76.9114C129.12 74.0703 132.017 67.6937 128.856 64.9157C130.279 64.6 133.06 62.4534 132.807 56.3924C132.491 48.8162 117.004 49.4475 113.211 44.3967C109.418 39.3458 119.532 33.6636 110.524 27.3501C110.524 25.1401 108.628 21.0368 105.625 19.4584Z" fill="url(#paint3_radial_2129_4370)"/>
<path fill-rule="evenodd" clip-rule="evenodd" d="M136.02 80.7497C126.259 90.3138 112.172 82.5078 114.633 72.8076C117.636 60.9698 104.993 51.4995 98.6712 61.2851L90.066 90.7331C102.694 100.336 126.622 114.689 136.284 106.112C145.516 97.9156 142.583 86.5999 136.02 80.7497Z" fill="url(#paint4_linear_2129_4370)"/>
<path d="M31.505 100.113C31.6103 102.165 32.4848 106.237 35.1399 106.111L62.3224 102.639L56.475 23.2459C51.8919 18.4582 42.5676 9.70337 41.9355 12.9864C41.6194 13.5652 39.8178 15.7328 35.1399 19.7735C29.2925 24.8243 26.1317 35.5573 31.505 40.4503C36.8783 45.3433 27.0799 51.9726 24.8674 45.9747C15.5432 52.2882 17.4396 73.2808 23.9192 76.9111C19.4941 78.3316 20.2843 87.1706 23.9192 88.749C20.2843 94.9047 27.396 101.376 31.505 100.113Z" fill="url(#paint5_linear_2129_4370)"/>
<path d="M31.505 100.113C31.6103 102.165 32.4848 106.237 35.1399 106.111L62.3224 102.639L56.475 23.2459C51.8919 18.4582 42.5676 9.70337 41.9355 12.9864C41.6194 13.5652 39.8178 15.7328 35.1399 19.7735C29.2925 24.8243 26.1317 35.5573 31.505 40.4503C36.8783 45.3433 27.0799 51.9726 24.8674 45.9747C15.5432 52.2882 17.4396 73.2808 23.9192 76.9111C19.4941 78.3316 20.2843 87.1706 23.9192 88.749C20.2843 94.9047 27.396 101.376 31.505 100.113Z" fill="url(#paint6_radial_2129_4370)"/>
<path d="M31.505 100.113C31.6103 102.165 32.4848 106.237 35.1399 106.111L62.3224 102.639L56.475 23.2459C51.8919 18.4582 42.5676 9.70337 41.9355 12.9864C41.6194 13.5652 39.8178 15.7328 35.1399 19.7735C29.2925 24.8243 26.1317 35.5573 31.505 40.4503C36.8783 45.3433 27.0799 51.9726 24.8674 45.9747C15.5432 52.2882 17.4396 73.2808 23.9192 76.9111C19.4941 78.3316 20.2843 87.1706 23.9192 88.749C20.2843 94.9047 27.396 101.376 31.505 100.113Z" fill="url(#paint7_radial_2129_4370)"/>
<path d="M31.505 100.113C31.6103 102.165 32.4848 106.237 35.1399 106.111L62.3224 102.639L56.475 23.2459C51.8919 18.4582 42.5676 9.70337 41.9355 12.9864C41.6194 13.5652 39.8178 15.7328 35.1399 19.7735C29.2925 24.8243 26.1317 35.5573 31.505 40.4503C36.8783 45.3433 27.0799 51.9726 24.8674 45.9747C15.5432 52.2882 17.4396 73.2808 23.9192 76.9111C19.4941 78.3316 20.2843 87.1706 23.9192 88.749C20.2843 94.9047 27.396 101.376 31.505 100.113Z" fill="url(#paint8_radial_2129_4370)"/>
<path d="M31.505 100.113C31.6103 102.165 32.4848 106.237 35.1399 106.111L62.3224 102.639L56.475 23.2459C51.8919 18.4582 42.5676 9.70337 41.9355 12.9864C41.6194 13.5652 39.8178 15.7328 35.1399 19.7735C29.2925 24.8243 26.1317 35.5573 31.505 40.4503C36.8783 45.3433 27.0799 51.9726 24.8674 45.9747C15.5432 52.2882 17.4396 73.2808 23.9192 76.9111C19.4941 78.3316 20.2843 87.1706 23.9192 88.749C20.2843 94.9047 27.396 101.376 31.505 100.113Z" fill="url(#paint9_radial_2129_4370)"/>
<path d="M28.8184 61.9161C29.2925 51.0252 48.8892 53.8663 46.0445 42.3441L65.3251 102.796L41.1453 107.689C47.941 105.637 50.4695 86.8546 37.6684 84.487C38.9854 83.3296 41.5246 80.1623 41.1453 76.7529C40.6712 72.4913 28.3442 72.807 28.8184 61.9161Z" fill="url(#paint10_linear_2129_4370)"/>
<path d="M42.2516 12.1966C43.0945 15.7217 46.6767 22.7718 54.2625 22.7718L68.802 28.1383L73.3851 7.61925C71.3306 6.67224 66.2418 4.74666 62.3224 4.62039C57.4233 4.46255 56.6331 8.09284 52.8401 8.40851C49.0472 8.72419 44.6222 9.35555 42.2516 12.1966Z" fill="url(#paint11_linear_2129_4370)"/>
<path d="M42.2516 12.1966C43.0945 15.7217 46.6767 22.7718 54.2625 22.7718L68.802 28.1383L73.3851 7.61925C71.3306 6.67224 66.2418 4.74666 62.3224 4.62039C57.4233 4.46255 56.6331 8.09284 52.8401 8.40851C49.0472 8.72419 44.6222 9.35555 42.2516 12.1966Z" fill="url(#paint12_radial_2129_4370)"/>
<path d="M82.7094 5.25273C68.96 4.62137 63.1125 14.8809 67.2216 24.1933L88.0826 29.4021C87.7666 25.1405 95.8265 21.6679 99.1453 21.6679C102.464 21.6679 103.57 15.1966 98.039 13.9339C92.5077 12.6712 89.0309 5.25273 82.7094 5.25273Z" fill="url(#paint13_linear_2129_4370)"/>
<path d="M82.7094 5.25273C68.96 4.62137 63.1125 14.8809 67.2216 24.1933L88.0826 29.4021C87.7666 25.1405 95.8265 21.6679 99.1453 21.6679C102.464 21.6679 103.57 15.1966 98.039 13.9339C92.5077 12.6712 89.0309 5.25273 82.7094 5.25273Z" fill="url(#paint14_radial_2129_4370)"/>
<path d="M82.7094 5.25273C68.96 4.62137 63.1125 14.8809 67.2216 24.1933L88.0826 29.4021C87.7666 25.1405 95.8265 21.6679 99.1453 21.6679C102.464 21.6679 103.57 15.1966 98.039 13.9339C92.5077 12.6712 89.0309 5.25273 82.7094 5.25273Z" fill="url(#paint15_radial_2129_4370)"/>
<path d="M143.077 20.7692H159.888V31.2732H143.077V20.7692Z" fill="#87CC1F"/>
<path d="M161.538 66.9231H178.349V77.427H161.538V66.9231Z" fill="#0192E9"/>
<path d="M175.385 20.7692H192.195V31.2732H175.385V20.7692Z" fill="#87CC1F"/>
<path d="M193.846 57.6923H210.657V68.1963H193.846V57.6923Z" fill="#FF8300"/>
<path fill-rule="evenodd" clip-rule="evenodd" d="M138.712 42.3246L144.612 39.2308L144.341 45.887L142.014 44.4143L134.334 56.5506L133.359 55.9336L141.039 43.7973L138.712 42.3246Z" fill="white"/>
<path fill-rule="evenodd" clip-rule="evenodd" d="M177.091 38.7149L182.341 34.6154L183.266 41.2126L180.713 40.1801L171.304 63.4447L170.234 63.0121L179.644 39.7475L177.091 38.7149Z" fill="white"/>
<path fill-rule="evenodd" clip-rule="evenodd" d="M215.104 40.955L221.539 39.2308L219.814 45.6655L217.867 43.7182L208.1 53.4849L207.284 52.669L217.051 42.9023L215.104 40.955Z" fill="white"/>
<path fill-rule="evenodd" clip-rule="evenodd" d="M165.277 55.5153L166.154 62.3085L160.125 59.2675L162.255 57.7164L150.521 41.0063L151.413 40.3564L163.147 57.0665L165.277 55.5153Z" fill="white"/>
<path fill-rule="evenodd" clip-rule="evenodd" d="M202.53 50.7802L203.077 57.692L197.282 54.3879L199.451 52.8965L188.296 34.9275L189.205 34.3026L200.36 52.2716L202.53 50.7802Z" fill="white"/>
<path d="M150.944 120H30.4699C31.0231 116.807 31.413 113.442 31.2163 111.085C30.7422 105.402 33.5869 100.509 38.328 99.4045C38.9729 99.2542 39.7874 99.0864 40.7177 98.8948C46.6272 97.6772 57.2124 95.4963 58.7144 90.7234L67.2485 115.82L76.5728 119.45C87.6355 112.032 110.298 97.6367 112.447 99.4045C113.919 100.615 116.815 100.784 120.536 101C123.606 101.178 127.238 101.389 131.096 102.246C139.63 104.14 147.058 109.348 148.954 114.399C149.598 116.114 150.274 118.05 150.944 120Z" fill="url(#paint16_radial_2129_4370)"/>
<path d="M150.944 120H30.4699C31.0231 116.807 31.413 113.442 31.2163 111.085C30.7422 105.402 33.5869 100.509 38.328 99.4045C38.9729 99.2542 39.7874 99.0864 40.7177 98.8948C46.6272 97.6772 57.2124 95.4963 58.7144 90.7234L67.2485 115.82L76.5728 119.45C87.6355 112.032 110.298 97.6367 112.447 99.4045C113.919 100.615 116.815 100.784 120.536 101C123.606 101.178 127.238 101.389 131.096 102.246C139.63 104.14 147.058 109.348 148.954 114.399C149.598 116.114 150.274 118.05 150.944 120Z" fill="url(#paint17_radial_2129_4370)"/>
<path d="M96.5271 120H62.5467C53.5412 109.338 55.6182 91.3378 61.5599 90.407L97.1187 84.8828C97.5143 84.8696 98.1396 84.7207 98.8964 84.5404C101.163 84.0004 104.61 83.1793 106.601 84.8833C107.621 85.7571 108.395 87.8255 109.283 90.2021C110.705 94.007 112.423 98.6021 115.925 100.351C113.719 106.866 106.04 114.427 96.5271 120Z" fill="url(#paint18_radial_2129_4370)"/>
<path d="M96.5271 120H62.5467C53.5412 109.338 55.6182 91.3378 61.5599 90.407L97.1187 84.8828C97.5143 84.8696 98.1396 84.7207 98.8964 84.5404C101.163 84.0004 104.61 83.1793 106.601 84.8833C107.621 85.7571 108.395 87.8255 109.283 90.2021C110.705 94.007 112.423 98.6021 115.925 100.351C113.719 106.866 106.04 114.427 96.5271 120Z" fill="url(#paint19_radial_2129_4370)"/>
<path d="M73.0964 115.661C72.4642 112.504 65.6686 97.6671 62.5078 91.8271L96.486 76.3589C97.1709 80.2523 99.9102 87.5655 102.123 90.2487C101.543 90.8801 100.563 91.9534 98.5405 96.8779C96.0119 103.034 87.0038 115.661 73.0964 115.661Z" fill="#D9B3A2"/>
<path d="M73.0964 115.661C72.4642 112.504 65.6686 97.6671 62.5078 91.8271L96.486 76.3589C97.1709 80.2523 99.9102 87.5655 102.123 90.2487C101.543 90.8801 100.563 91.9534 98.5405 96.8779C96.0119 103.034 87.0038 115.661 73.0964 115.661Z" fill="url(#paint20_radial_2129_4370)"/>
<path d="M73.0964 115.661C72.4642 112.504 65.6686 97.6671 62.5078 91.8271L96.486 76.3589C97.1709 80.2523 99.9102 87.5655 102.123 90.2487C101.543 90.8801 100.563 91.9534 98.5405 96.8779C96.0119 103.034 87.0038 115.661 73.0964 115.661Z" fill="url(#paint21_radial_2129_4370)"/>
<path d="M73.0964 115.661C72.4642 112.504 65.6686 97.6671 62.5078 91.8271L96.486 76.3589C97.1709 80.2523 99.9102 87.5655 102.123 90.2487C101.543 90.8801 100.563 91.9534 98.5405 96.8779C96.0119 103.034 87.0038 115.661 73.0964 115.661Z" fill="url(#paint22_radial_2129_4370)"/>
<path d="M97.9874 65.6267C97.5396 67.0473 97.1814 69.6989 100.595 70.5197C106.531 71.947 109.479 61.7209 108.294 55.6212C107.609 55.1393 106.661 54.9162 105.41 55.052C101.775 55.4466 99.4042 60.1026 99.0882 60.1658C98.7721 60.2289 98.3035 61.8912 97.9874 65.6267Z" fill="#D9B3A2"/>
<path d="M97.9874 65.6267C97.5396 67.0473 97.1814 69.6989 100.595 70.5197C106.531 71.947 109.479 61.7209 108.294 55.6212C107.609 55.1393 106.661 54.9162 105.41 55.052C101.775 55.4466 99.4042 60.1026 99.0882 60.1658C98.7721 60.2289 98.3035 61.8912 97.9874 65.6267Z" fill="url(#paint23_radial_2129_4370)"/>
<path d="M97.9874 65.6267C97.5396 67.0473 97.1814 69.6989 100.595 70.5197C106.531 71.947 109.479 61.7209 108.294 55.6212C107.609 55.1393 106.661 54.9162 105.41 55.052C101.775 55.4466 99.4042 60.1026 99.0882 60.1658C98.7721 60.2289 98.3035 61.8912 97.9874 65.6267Z" fill="url(#paint24_radial_2129_4370)"/>
<path d="M97.9874 65.6267C97.5396 67.0473 97.1814 69.6989 100.595 70.5197C106.531 71.947 109.479 61.7209 108.294 55.6212C107.609 55.1393 106.661 54.9162 105.41 55.052C101.775 55.4466 99.4042 60.1026 99.0882 60.1658C98.7721 60.2289 98.3035 61.8912 97.9874 65.6267Z" fill="url(#paint25_radial_2129_4370)"/>
<path d="M42.9113 56.6302C42.7532 49.5275 47.6524 32.9544 46.5462 26.483C47.231 25.536 48.4742 23.0737 53.6578 20.8008C60.1374 17.9597 64.2464 20.959 68.1973 20.8012C72.1483 20.6434 78.6005 17.1931 84.6333 23.0105C89.2164 27.43 96.3281 28.3771 96.3281 31.5339C96.3281 38.6366 99.4889 49.054 100.437 53.947C101.385 58.84 98.3826 75.8865 96.3281 79.0433C94.2736 82.2001 77.8377 93.0909 75.4671 94.1958C73.0965 95.3007 65.8268 94.5115 63.2982 94.1958C60.7695 93.8801 51.4453 86.6196 50.023 81.8844C48.6006 77.1492 43.0693 63.7329 42.9113 56.6302Z" fill="#E1B9A7"/>
<path d="M42.9113 56.6302C42.7532 49.5275 47.6524 32.9544 46.5462 26.483C47.231 25.536 48.4742 23.0737 53.6578 20.8008C60.1374 17.9597 64.2464 20.959 68.1973 20.8012C72.1483 20.6434 78.6005 17.1931 84.6333 23.0105C89.2164 27.43 96.3281 28.3771 96.3281 31.5339C96.3281 38.6366 99.4889 49.054 100.437 53.947C101.385 58.84 98.3826 75.8865 96.3281 79.0433C94.2736 82.2001 77.8377 93.0909 75.4671 94.1958C73.0965 95.3007 65.8268 94.5115 63.2982 94.1958C60.7695 93.8801 51.4453 86.6196 50.023 81.8844C48.6006 77.1492 43.0693 63.7329 42.9113 56.6302Z" fill="url(#paint26_radial_2129_4370)"/>
<path d="M42.9113 56.6302C42.7532 49.5275 47.6524 32.9544 46.5462 26.483C47.231 25.536 48.4742 23.0737 53.6578 20.8008C60.1374 17.9597 64.2464 20.959 68.1973 20.8012C72.1483 20.6434 78.6005 17.1931 84.6333 23.0105C89.2164 27.43 96.3281 28.3771 96.3281 31.5339C96.3281 38.6366 99.4889 49.054 100.437 53.947C101.385 58.84 98.3826 75.8865 96.3281 79.0433C94.2736 82.2001 77.8377 93.0909 75.4671 94.1958C73.0965 95.3007 65.8268 94.5115 63.2982 94.1958C60.7695 93.8801 51.4453 86.6196 50.023 81.8844C48.6006 77.1492 43.0693 63.7329 42.9113 56.6302Z" fill="url(#paint27_radial_2129_4370)"/>
<path d="M42.9113 56.6302C42.7532 49.5275 47.6524 32.9544 46.5462 26.483C47.231 25.536 48.4742 23.0737 53.6578 20.8008C60.1374 17.9597 64.2464 20.959 68.1973 20.8012C72.1483 20.6434 78.6005 17.1931 84.6333 23.0105C89.2164 27.43 96.3281 28.3771 96.3281 31.5339C96.3281 38.6366 99.4889 49.054 100.437 53.947C101.385 58.84 98.3826 75.8865 96.3281 79.0433C94.2736 82.2001 77.8377 93.0909 75.4671 94.1958C73.0965 95.3007 65.8268 94.5115 63.2982 94.1958C60.7695 93.8801 51.4453 86.6196 50.023 81.8844C48.6006 77.1492 43.0693 63.7329 42.9113 56.6302Z" fill="url(#paint28_radial_2129_4370)"/>
<path d="M42.9113 56.6302C42.7532 49.5275 47.6524 32.9544 46.5462 26.483C47.231 25.536 48.4742 23.0737 53.6578 20.8008C60.1374 17.9597 64.2464 20.959 68.1973 20.8012C72.1483 20.6434 78.6005 17.1931 84.6333 23.0105C89.2164 27.43 96.3281 28.3771 96.3281 31.5339C96.3281 38.6366 99.4889 49.054 100.437 53.947C101.385 58.84 98.3826 75.8865 96.3281 79.0433C94.2736 82.2001 77.8377 93.0909 75.4671 94.1958C73.0965 95.3007 65.8268 94.5115 63.2982 94.1958C60.7695 93.8801 51.4453 86.6196 50.023 81.8844C48.6006 77.1492 43.0693 63.7329 42.9113 56.6302Z" fill="url(#paint29_radial_2129_4370)"/>
<path d="M42.9113 56.6302C42.7532 49.5275 47.6524 32.9544 46.5462 26.483C47.231 25.536 48.4742 23.0737 53.6578 20.8008C60.1374 17.9597 64.2464 20.959 68.1973 20.8012C72.1483 20.6434 78.6005 17.1931 84.6333 23.0105C89.2164 27.43 96.3281 28.3771 96.3281 31.5339C96.3281 38.6366 99.4889 49.054 100.437 53.947C101.385 58.84 98.3826 75.8865 96.3281 79.0433C94.2736 82.2001 77.8377 93.0909 75.4671 94.1958C73.0965 95.3007 65.8268 94.5115 63.2982 94.1958C60.7695 93.8801 51.4453 86.6196 50.023 81.8844C48.6006 77.1492 43.0693 63.7329 42.9113 56.6302Z" fill="url(#paint30_radial_2129_4370)"/>
<path d="M70.9576 66.814C69.1402 64.4431 69.0795 56.9416 71.6685 49.3504C74.2576 41.7592 76.726 46.427 75.3037 51.3262C74.1658 55.2456 78.3591 62.4679 79.4917 65.7077C77.7006 66.7349 72.1292 68.3424 70.9576 66.814Z" fill="url(#paint31_radial_2129_4370)"/>
<path d="M70.4099 55.5262C70.2519 53.4743 72.5434 44.9511 76.3363 42.8992C81.9994 39.7424 92.2192 40.3734 92.2192 46.8451C91.1129 60.2613 70.5679 57.578 70.4099 55.5262Z" fill="url(#paint32_radial_2129_4370)"/>
<path d="M65.1919 55.7951C65.35 53.7433 63.2332 45.199 59.4403 43.1471C53.7773 39.9903 43.3827 40.6425 43.3827 47.1141C44.489 60.5302 65.0339 57.847 65.1919 55.7951Z" fill="url(#paint33_radial_2129_4370)"/>
<path d="M76.5342 62.386C78.6235 65.5276 76.76 70.2557 74.3225 70.6182C72.3725 70.9077 68.2352 69.2135 68.2352 67.4005C68.4674 62.3256 74.445 59.2444 76.5342 62.386Z" fill="url(#paint34_radial_2129_4370)"/>
<path d="M58.8675 63.4548C57.4942 66.3091 59.679 69.4846 61.7777 69.7855C63.4567 70.0258 65.0458 68.8378 65.0458 67.3333C64.794 60.5706 61.3961 58.1994 58.8675 63.4548Z" fill="url(#paint35_radial_2129_4370)"/>
<path d="M58.8675 63.4548C57.4942 66.3091 59.679 69.4846 61.7777 69.7855C63.4567 70.0258 65.0458 68.8378 65.0458 67.3333C64.794 60.5706 61.3961 58.1994 58.8675 63.4548Z" fill="url(#paint36_radial_2129_4370)"/>
<path d="M73.9601 63.6946C75.2418 65.7066 74.1737 68.4152 72.6785 68.6473C71.4822 68.8328 68.8691 68.0672 68.8691 66.9061C69.0115 63.6559 72.6785 61.6825 73.9601 63.6946Z" fill="#FBE0D4"/>
<path d="M68.6658 67.3658C67.7581 68.237 66.1174 70.4476 64.9204 66.3349C58.9472 70.6949 64.002 72.616 67.8056 71.9193C69.0063 71.6994 69.0813 66.967 68.6658 67.3658Z" fill="url(#paint37_radial_2129_4370)"/>
<path d="M63.0026 68.3639C59.7458 67.6531 60.0979 63.2192 63.3347 63.5894L64.7041 65.0888C65.1881 66.7461 65.5337 68.9164 63.0026 68.3639Z" fill="#FBE0D4"/>
<path d="M66.3996 63.415C66.7157 61.9155 70.4043 51.7992 61.1788 44.5887C63.9443 48.5347 65.7465 56.2429 63.3913 61.9927C62.6801 63.7289 62.6857 67.9749 66.3996 68.6852C66.0045 68.0012 65.9301 65.6424 66.3996 63.415Z" fill="url(#paint38_radial_2129_4370)"/>
<path d="M66.3996 63.415C66.7157 61.9155 70.4043 51.7992 61.1788 44.5887C63.9443 48.5347 65.7465 56.2429 63.3913 61.9927C62.6801 63.7289 62.6857 67.9749 66.3996 68.6852C66.0045 68.0012 65.9301 65.6424 66.3996 63.415Z" fill="url(#paint39_radial_2129_4370)"/>
<path d="M66.2836 66.2863C65.3265 66.1543 64.4651 64.4677 64.0822 61.1178C62.3594 61.1178 62.168 63.0321 60.9237 63.4149C59.6794 63.7978 59.3397 66.7343 60.1317 68.5518C60.9237 70.3692 66.2836 71.3591 67.2408 70.0191C68.1979 68.6791 68.1022 69.062 71.6435 69.062C75.1849 69.062 74.6331 65.418 74.0588 63.7909C73.4845 62.1637 71.1387 62.9394 70.2264 63.7909C69.3374 64.6206 67.2408 66.4182 66.2836 66.2863Z" fill="url(#paint40_radial_2129_4370)"/>
<path d="M71.4101 64.9969C70.3211 65.0364 69.7403 66.2202 69.0143 66.9699C69.8492 66.2998 71.6279 67.3251 72.2813 66.9699C72.9347 66.6148 72.4991 64.9575 71.4101 64.9969Z" fill="#120000"/>
<path d="M67.9603 83.4231C63.8514 83.3837 60.493 80.7793 60.0584 78.4512C61.5993 75.0971 74.993 76.3993 77.6797 77.8198C77.2846 79.2799 72.0693 83.4626 67.9603 83.4231Z" fill="url(#paint41_radial_2129_4370)"/>
<path d="M67.9603 83.4231C63.8514 83.3837 60.493 80.7793 60.0584 78.4512C61.5993 75.0971 74.993 76.3993 77.6797 77.8198C77.2846 79.2799 72.0693 83.4626 67.9603 83.4231Z" fill="url(#paint42_radial_2129_4370)"/>
<path d="M67.9603 83.4231C63.8514 83.3837 60.493 80.7793 60.0584 78.4512C61.5993 75.0971 74.993 76.3993 77.6797 77.8198C77.2846 79.2799 72.0693 83.4626 67.9603 83.4231Z" fill="url(#paint43_radial_2129_4370)"/>
<path d="M67.9603 83.4231C63.8514 83.3837 60.493 80.7793 60.0584 78.4512C61.5993 75.0971 74.993 76.3993 77.6797 77.8198C77.2846 79.2799 72.0693 83.4626 67.9603 83.4231Z" fill="url(#paint44_radial_2129_4370)"/>
<path d="M67.9603 83.4231C63.8514 83.3837 60.493 80.7793 60.0584 78.4512C61.5993 75.0971 74.993 76.3993 77.6797 77.8198C77.2846 79.2799 72.0693 83.4626 67.9603 83.4231Z" fill="url(#paint45_radial_2129_4370)"/>
<path d="M63.3889 65.0359C61.1294 64.8778 62.2557 67.9712 64.1228 66.9451C64.6871 66.5978 63.9836 65.5358 63.3889 65.0359Z" fill="#120000"/>
<path d="M64.207 73.4004C62.271 73.4793 60.5326 76.5967 58.2411 77.8199C61.0067 80.1088 64.5231 77.1488 65.2738 77.1488C66.0244 77.1488 67.2492 78.0169 67.9999 78.0169C68.7506 78.0169 69.8569 77.2277 70.7656 77.1488C71.6743 77.0699 76.4154 79.5164 79.4577 77.425C77.9958 77.4645 73.5313 73.4004 71.4768 73.4004C69.4223 73.4004 68.8691 74.8999 67.9999 74.9393C67.1307 74.9788 66.143 73.3215 64.207 73.4004Z" fill="url(#paint46_radial_2129_4370)"/>
<path d="M80.5514 44.9704C79.6041 45.0514 76.2315 46.7918 75.6252 50.394H87.9786C88.9386 50.475 90.7449 50.4912 90.2902 49.9083C86.3871 44.8085 81.4988 44.8895 80.5514 44.9704Z" fill="url(#paint47_radial_2129_4370)"/>
<path d="M80.597 47.3965C78.9062 47.4754 76.908 50.0797 74.756 51.0268V51.4216C75.1915 51.29 76.4214 51.3645 78.1376 52.053C80.597 53.0394 85.4772 53.4345 88.7819 50.5932C86.0152 47.3575 82.2878 47.3176 80.597 47.3965Z" fill="#FBF1F2"/>
<path d="M86.177 49.4065C86.177 51.0861 84.8137 52.4477 83.132 52.4477C81.4502 52.4477 80.0869 51.0861 80.0869 49.4065C80.0869 47.7269 81.4502 46.3653 83.132 46.3653C84.8137 46.3653 86.177 47.7269 86.177 49.4065Z" fill="url(#paint48_radial_2129_4370)"/>
<path d="M85.3951 48.783C85.3951 49.7817 84.5845 50.5912 83.5846 50.5912C82.5847 50.5912 81.774 49.7817 81.774 48.783C81.774 47.7843 82.5847 46.9747 83.5846 46.9747C84.5845 46.9747 85.3951 47.7843 85.3951 48.783Z" fill="#080C07"/>
<path d="M83.129 48.293C83.129 48.6823 82.8131 48.9979 82.4233 48.9979C82.0336 48.9979 81.7176 48.6823 81.7176 48.293C81.7176 47.9038 82.0336 47.5882 82.4233 47.5882C82.8131 47.5882 83.129 47.9038 83.129 48.293Z" fill="white"/>
<path d="M91.2314 49.9221C90.802 49.7379 88.832 48.7144 87.1144 47.6726C85.86 46.9117 83.4338 45.7962 80.8302 46.2285C78.2266 46.6608 77.1796 49.0144 75.0325 50.9481C77.2154 50.159 78.3924 47.6262 80.8302 47.357C85.4989 46.8414 87.1437 49.5961 88.2302 50.4746C89.4095 51.428 90.7424 50.4483 91.2314 49.9221Z" fill="#080C07"/>
<path d="M56.6523 45.2387C57.5682 45.3196 60.8286 47.0601 61.4147 50.6623H49.4721C48.5441 50.7432 46.7978 50.7594 47.2375 50.1766C51.0107 45.0768 55.7365 45.1577 56.6523 45.2387Z" fill="url(#paint49_radial_2129_4370)"/>
<path d="M56.6083 47.6653C58.2429 47.7442 60.1746 50.3486 62.255 51.2956V51.6904C61.834 51.5588 60.645 51.6334 58.9859 52.3218C56.6083 53.3083 51.8904 53.7033 48.6955 50.862C51.3703 47.6263 54.9738 47.5864 56.6083 47.6653Z" fill="#FBF1F2"/>
<path d="M59.2919 49.6753C59.2919 51.3549 57.9286 52.7165 56.2469 52.7165C54.5651 52.7165 53.2018 51.3549 53.2018 49.6753C53.2018 47.9957 54.5651 46.6341 56.2469 46.6341C57.9286 46.6341 59.2919 47.9957 59.2919 49.6753Z" fill="url(#paint50_radial_2129_4370)"/>
<path d="M58.5101 49.0512C58.5101 50.0499 57.6995 50.8595 56.6995 50.8595C55.6996 50.8595 54.889 50.0499 54.889 49.0512C54.889 48.0526 55.6996 47.243 56.6995 47.243C57.6995 47.243 58.5101 48.0526 58.5101 49.0512Z" fill="#080C07"/>
<path d="M56.2439 48.5612C56.2439 48.9505 55.928 49.266 55.5382 49.266C55.1485 49.266 54.8325 48.9505 54.8325 48.5612C54.8325 48.1719 55.1485 47.8564 55.5382 47.8564C55.928 47.8564 56.2439 48.1719 56.2439 48.5612Z" fill="white"/>
<path d="M46.3274 50.191C46.7426 50.0068 48.6471 48.9835 50.3076 47.9418C51.5203 47.1811 54.0881 46.057 56.6051 46.4892C59.1221 46.9214 59.912 49.2835 61.9877 51.2168C59.8774 50.4278 58.7395 47.8955 56.3828 47.6263C51.8694 47.1108 50.2793 49.865 49.2289 50.7433C48.0888 51.6967 46.8002 50.717 46.3274 50.191Z" fill="#080C07"/>
<path d="M44.966 46.4491C50.4183 38.794 57.0559 40.5302 60.9278 43.7659C61.891 44.4978 61.402 46.0942 59.6635 45.1077C57.2989 43.7659 53.421 42.898 50.1813 43.7659C46.9415 44.6338 46.2302 46.1335 45.519 46.765C44.8078 47.3966 44.3188 47.3578 44.966 46.4491Z" fill="#583F2B"/>
<path d="M93.6809 45.8965C86.8063 36.071 79.5698 39.1879 75.6978 42.4236C74.7347 43.1555 75.2237 44.7519 76.9621 43.7655C79.3268 42.4236 83.9221 41.1616 87.1618 42.0295C90.4016 42.8974 92.6 45.4216 93.1279 46.2124C93.681 47.0409 94.2891 46.7657 93.6809 45.8965Z" fill="#583F2B"/>
<defs>
<linearGradient id="paint0_linear_2129_4370" x1="132.981" y1="54.2308" x2="101.827" y2="73.5577" gradientUnits="userSpaceOnUse">
<stop stop-color="#947B67"/>
<stop offset="1" stop-color="#5B4633"/>
</linearGradient>
<radialGradient id="paint1_radial_2129_4370" cx="0" cy="0" r="1" gradientUnits="userSpaceOnUse" gradientTransform="translate(112.104 29.5598) rotate(148.083) scale(17.3155 5.01934)">
<stop stop-color="#B8ACA2"/>
<stop offset="1" stop-color="#9C897A" stop-opacity="0"/>
</radialGradient>
<radialGradient id="paint2_radial_2129_4370" cx="0" cy="0" r="1" gradientUnits="userSpaceOnUse" gradientTransform="translate(126.802 50.0788) rotate(168.704) scale(27.3972 7.93696)">
<stop stop-color="#B8ACA2"/>
<stop offset="1" stop-color="#9C897A" stop-opacity="0"/>
</radialGradient>
<radialGradient id="paint3_radial_2129_4370" cx="0" cy="0" r="1" gradientUnits="userSpaceOnUse" gradientTransform="translate(97.2115 63.9032) rotate(55.0379) scale(57.8903 35.2648)">
<stop offset="0.864583" stop-color="#B7AAA0" stop-opacity="0"/>
<stop offset="1" stop-color="#B7AAA0"/>
</radialGradient>
<linearGradient id="paint4_linear_2129_4370" x1="102.115" y1="95.7692" x2="131.073" y2="75.4886" gradientUnits="userSpaceOnUse">
<stop offset="0.418552" stop-color="#332215"/>
<stop offset="1" stop-color="#5A4434" stop-opacity="0"/>
</linearGradient>
<linearGradient id="paint5_linear_2129_4370" x1="21.0577" y1="54.2308" x2="53.074" y2="63.4715" gradientUnits="userSpaceOnUse">
<stop stop-color="#AA907B"/>
<stop offset="1" stop-color="#452912"/>
</linearGradient>
<radialGradient id="paint6_radial_2129_4370" cx="0" cy="0" r="1" gradientUnits="userSpaceOnUse" gradientTransform="translate(20.1262 52.2882) rotate(13.2839) scale(30.0409 9.53092)">
<stop stop-color="#B8ACA2"/>
<stop offset="1" stop-color="#9C897A" stop-opacity="0"/>
</radialGradient>
<radialGradient id="paint7_radial_2129_4370" cx="0" cy="0" r="1" gradientUnits="userSpaceOnUse" gradientTransform="translate(31.663 24.3508) rotate(21.5163) scale(19.3659 6.1454)">
<stop stop-color="#B8ACA2"/>
<stop offset="1" stop-color="#9C897A" stop-opacity="0"/>
</radialGradient>
<radialGradient id="paint8_radial_2129_4370" cx="0" cy="0" r="1" gradientUnits="userSpaceOnUse" gradientTransform="translate(18.4616 80.2257) rotate(11.3938) scale(22.3713 7.09739)">
<stop stop-color="#B8ACA2"/>
<stop offset="1" stop-color="#9C897A" stop-opacity="0"/>
</radialGradient>
<radialGradient id="paint9_radial_2129_4370" cx="0" cy="0" r="1" gradientUnits="userSpaceOnUse" gradientTransform="translate(45 57.6923) rotate(100.136) scale(52.4532 24.5149)">
<stop offset="0.864583" stop-color="#B7AAA0" stop-opacity="0"/>
<stop offset="1" stop-color="#B7AAA0"/>
</radialGradient>
<linearGradient id="paint10_linear_2129_4370" x1="54.7366" y1="76.9108" x2="20.1262" y2="77.5437" gradientUnits="userSpaceOnUse">
<stop stop-color="#1A1008"/>
<stop offset="1" stop-color="#5A4434" stop-opacity="0"/>
</linearGradient>
<linearGradient id="paint11_linear_2129_4370" x1="57.8183" y1="4.61539" x2="57.8183" y2="22.7718" gradientUnits="userSpaceOnUse">
<stop stop-color="#856D59"/>
<stop offset="1" stop-color="#382516"/>
</linearGradient>
<radialGradient id="paint12_radial_2129_4370" cx="0" cy="0" r="1" gradientUnits="userSpaceOnUse" gradientTransform="translate(44.4641 5.72519) rotate(28.3727) scale(22.4149 7.18823)">
<stop stop-color="#B8ACA2"/>
<stop offset="1" stop-color="#9C897A" stop-opacity="0"/>
</radialGradient>
<linearGradient id="paint13_linear_2129_4370" x1="84.0531" y1="5.22807" x2="84.0531" y2="29.402" gradientUnits="userSpaceOnUse">
<stop stop-color="#856D59"/>
<stop offset="1" stop-color="#362416"/>
</linearGradient>
<radialGradient id="paint14_radial_2129_4370" cx="0" cy="0" r="1" gradientUnits="userSpaceOnUse" gradientTransform="translate(69.2759 6.67328) rotate(25.7301) scale(24.5128 7.00835)">
<stop stop-color="#B8ACA2"/>
<stop offset="1" stop-color="#9C897A" stop-opacity="0"/>
</radialGradient>
<radialGradient id="paint15_radial_2129_4370" cx="0" cy="0" r="1" gradientUnits="userSpaceOnUse" gradientTransform="translate(87.9245 20.2474) rotate(13.7104) scale(21.3102 15.4117)">
<stop offset="0.901042" stop-color="#9C897A" stop-opacity="0"/>
<stop offset="1" stop-color="#B8ACA2"/>
</radialGradient>
<radialGradient id="paint16_radial_2129_4370" cx="0" cy="0" r="1" gradientUnits="userSpaceOnUse" gradientTransform="translate(75.6251 111.716) rotate(41.5178) scale(55.7981 73.0502)">
<stop stop-color="#16300A"/>
<stop offset="1" stop-color="#87B472"/>
</radialGradient>
<radialGradient id="paint17_radial_2129_4370" cx="0" cy="0" r="1" gradientUnits="userSpaceOnUse" gradientTransform="translate(141.685 133.656) rotate(-112.173) scale(33.9183 18.0273)">
<stop stop-color="#756B68"/>
<stop offset="1" stop-color="#756B68" stop-opacity="0"/>
</radialGradient>
<radialGradient id="paint18_radial_2129_4370" cx="0" cy="0" r="1" gradientUnits="userSpaceOnUse" gradientTransform="translate(84.0011 95.3008) rotate(114.603) scale(28.4702 19.2118)">
<stop offset="0.50389" stop-color="#132F06"/>
<stop offset="1" stop-color="#607D53"/>
</radialGradient>
<radialGradient id="paint19_radial_2129_4370" cx="0" cy="0" r="1" gradientUnits="userSpaceOnUse" gradientTransform="translate(83.527 95.1429) rotate(138.708) scale(41.8574 27.9709)">
<stop offset="0.847612" stop-color="#928480" stop-opacity="0"/>
<stop offset="1" stop-color="#928480"/>
</radialGradient>
<radialGradient id="paint20_radial_2129_4370" cx="0" cy="0" r="1" gradientUnits="userSpaceOnUse" gradientTransform="translate(85.5814 98.772) rotate(99.1502) scale(18.3854 17.0505)">
<stop offset="0.401625" stop-color="#FBE0D4" stop-opacity="0.7"/>
<stop offset="1" stop-color="#EDD6CD" stop-opacity="0"/>
</radialGradient>
<radialGradient id="paint21_radial_2129_4370" cx="0" cy="0" r="1" gradientUnits="userSpaceOnUse" gradientTransform="translate(83.2108 79.8314) rotate(118.658) scale(43.1695 14.0898)">
<stop offset="0.707271" stop-color="#9F7654"/>
<stop offset="1" stop-color="#9F7654" stop-opacity="0"/>
</radialGradient>
<radialGradient id="paint22_radial_2129_4370" cx="0" cy="0" r="1" gradientUnits="userSpaceOnUse" gradientTransform="translate(71.516 77.1481) rotate(81.923) scale(20.2463 20.7594)">
<stop offset="0.702182" stop-color="#2B0603"/>
<stop offset="1" stop-color="#2B0603" stop-opacity="0"/>
</radialGradient>
<radialGradient id="paint23_radial_2129_4370" cx="0" cy="0" r="1" gradientUnits="userSpaceOnUse" gradientTransform="translate(102.531 60.609) rotate(81.8834) scale(10.0714 7.09053)">
<stop offset="0.401625" stop-color="#FBE0D4"/>
<stop offset="1" stop-color="#EDD6CD" stop-opacity="0"/>
</radialGradient>
<radialGradient id="paint24_radial_2129_4370" cx="0" cy="0" r="1" gradientUnits="userSpaceOnUse" gradientTransform="translate(100.51 62.4241) rotate(-41.764) scale(10.5939 7.54233)">
<stop offset="0.467806" stop-color="#C69076"/>
<stop offset="1" stop-color="#C69076" stop-opacity="0"/>
</radialGradient>
<radialGradient id="paint25_radial_2129_4370" cx="0" cy="0" r="1" gradientUnits="userSpaceOnUse" gradientTransform="translate(99.4042 61.4447) rotate(100.449) scale(9.36545 3.86401)">
<stop stop-color="#6C5245"/>
<stop offset="1" stop-color="#9E735E" stop-opacity="0"/>
</radialGradient>
<radialGradient id="paint26_radial_2129_4370" cx="0" cy="0" r="1" gradientUnits="userSpaceOnUse" gradientTransform="translate(82.6442 61.5865) rotate(-19.3348) scale(26.1376 16.1122)">
<stop offset="0.188088" stop-color="#FBE0D4" stop-opacity="0.8"/>
<stop offset="1" stop-color="#EDD6CD" stop-opacity="0"/>
</radialGradient>
<radialGradient id="paint27_radial_2129_4370" cx="0" cy="0" r="1" gradientUnits="userSpaceOnUse" gradientTransform="translate(50.7692 61.875) rotate(-152.152) scale(17.2909 10.6588)">
<stop offset="0.188088" stop-color="#FBE0D4" stop-opacity="0.7"/>
<stop offset="1" stop-color="#EDD6CD" stop-opacity="0"/>
</radialGradient>
<radialGradient id="paint28_radial_2129_4370" cx="0" cy="0" r="1" gradientUnits="userSpaceOnUse" gradientTransform="translate(75.3824 33.9411) scale(25.235 19.9128)">
<stop stop-color="#FBE0D4"/>
<stop offset="1" stop-color="#EDD6CD" stop-opacity="0"/>
</radialGradient>
<radialGradient id="paint29_radial_2129_4370" cx="0" cy="0" r="1" gradientUnits="userSpaceOnUse" gradientTransform="translate(100.617 63.4172) rotate(147.026) scale(19.4302 9.70247)">
<stop stop-color="#C69076"/>
<stop offset="1" stop-color="#C69076" stop-opacity="0"/>
</radialGradient>
<radialGradient id="paint30_radial_2129_4370" cx="0" cy="0" r="1" gradientUnits="userSpaceOnUse" gradientTransform="translate(39.5923 64.6799) rotate(47.5168) scale(17.5501 8.7691)">
<stop stop-color="#C69076"/>
<stop offset="1" stop-color="#C69076" stop-opacity="0"/>
</radialGradient>
<radialGradient id="paint31_radial_2129_4370" cx="0" cy="0" r="1" gradientUnits="userSpaceOnUse" gradientTransform="translate(70.3414 60.8873) rotate(-83.2817) scale(16.0722 4.65188)">
<stop stop-color="#A87B64"/>
<stop offset="1" stop-color="#B38771" stop-opacity="0"/>
</radialGradient>
<radialGradient id="paint32_radial_2129_4370" cx="0" cy="0" r="1" gradientUnits="userSpaceOnUse" gradientTransform="translate(75.6252 43.53) rotate(64.6258) scale(9.95741 13.4298)">
<stop stop-color="#B38771"/>
<stop offset="1" stop-color="#B38771" stop-opacity="0"/>
</radialGradient>
<radialGradient id="paint33_radial_2129_4370" cx="0" cy="0" r="1" gradientUnits="userSpaceOnUse" gradientTransform="translate(59.9767 43.7983) rotate(115.374) scale(9.95741 13.4298)">
<stop stop-color="#B38771"/>
<stop offset="1" stop-color="#B38771" stop-opacity="0"/>
</radialGradient>
<radialGradient id="paint34_radial_2129_4370" cx="0" cy="0" r="1" gradientUnits="userSpaceOnUse" gradientTransform="translate(72.5571 66.1442) rotate(86.2222) scale(4.45764 4.82399)">
<stop offset="0.557278" stop-color="#C89A86"/>
<stop offset="1" stop-color="#DDB7A6" stop-opacity="0"/>
</radialGradient>
<radialGradient id="paint35_radial_2129_4370" cx="0" cy="0" r="1" gradientUnits="userSpaceOnUse" gradientTransform="translate(63.1584 67.0168) rotate(90) scale(3.80505 4.02933)">
<stop offset="0.498314" stop-color="#C69A86"/>
<stop offset="1" stop-color="#DDB7A6" stop-opacity="0"/>
</radialGradient>
<radialGradient id="paint36_radial_2129_4370" cx="0" cy="0" r="1" gradientUnits="userSpaceOnUse" gradientTransform="translate(63.2531 65.549) rotate(20.9735) scale(5.07755 4.60267)">
<stop offset="0.498314" stop-color="#C69A86"/>
<stop offset="1" stop-color="#DDB7A6" stop-opacity="0"/>
</radialGradient>
<radialGradient id="paint37_radial_2129_4370" cx="0" cy="0" r="1" gradientUnits="userSpaceOnUse" gradientTransform="translate(67.5462 67.2731) rotate(98.0589) scale(3.69992 5.13078)">
<stop offset="0.498314" stop-color="#D0A693"/>
<stop offset="1" stop-color="#DDB7A6" stop-opacity="0"/>
</radialGradient>
<radialGradient id="paint38_radial_2129_4370" cx="0" cy="0" r="1" gradientUnits="userSpaceOnUse" gradientTransform="translate(64.9575 55.4462) rotate(95.1379) scale(13.2337 5.09485)">
<stop stop-color="#BA9381"/>
<stop offset="1" stop-color="#FBE0D4"/>
</radialGradient>
<radialGradient id="paint39_radial_2129_4370" cx="0" cy="0" r="1" gradientUnits="userSpaceOnUse" gradientTransform="translate(61.9492 48.1643) rotate(75.6543) scale(14.1918 3.12537)">
<stop stop-color="#C29A86"/>
<stop offset="1" stop-color="#C29A86" stop-opacity="0"/>
</radialGradient>
<radialGradient id="paint40_radial_2129_4370" cx="0" cy="0" r="1" gradientUnits="userSpaceOnUse" gradientTransform="translate(67.441 66.0627) rotate(87.1276) scale(4.38103 6.45979)">
<stop offset="0.287803" stop-color="#C09783"/>
<stop offset="1" stop-color="#CFA997" stop-opacity="0"/>
</radialGradient>
<radialGradient id="paint41_radial_2129_4370" cx="0" cy="0" r="1" gradientUnits="userSpaceOnUse" gradientTransform="translate(68.8691 77.7669) rotate(90) scale(6.72164 11.1271)">
<stop offset="0.45991" stop-color="#C3515A"/>
<stop offset="1" stop-color="#761810"/>
</radialGradient>
<radialGradient id="paint42_radial_2129_4370" cx="0" cy="0" r="1" gradientUnits="userSpaceOnUse" gradientTransform="translate(69.4616 79.3588) scale(5.05722 1.51884)">
<stop stop-color="#F4C5CB"/>
<stop offset="1" stop-color="#D3979F" stop-opacity="0"/>
</radialGradient>
<radialGradient id="paint43_radial_2129_4370" cx="0" cy="0" r="1" gradientUnits="userSpaceOnUse" gradientTransform="translate(68.3158 75.6101) rotate(-0.47685) scale(4.74131 3.73076)">
<stop offset="0.692591" stop-color="#600C05"/>
<stop offset="1" stop-color="#600C05" stop-opacity="0"/>
</radialGradient>
<radialGradient id="paint44_radial_2129_4370" cx="0" cy="0" r="1" gradientUnits="userSpaceOnUse" gradientTransform="translate(73.3335 73.8344) rotate(21.3506) scale(6.87218 5.40928)">
<stop offset="0.788391" stop-color="#600C05"/>
<stop offset="1" stop-color="#600C05" stop-opacity="0"/>
</radialGradient>
<radialGradient id="paint45_radial_2129_4370" cx="0" cy="0" r="1" gradientUnits="userSpaceOnUse" gradientTransform="translate(62.4684 74.7814) rotate(159.817) scale(6.06158 4.77107)">
<stop offset="0.788391" stop-color="#600C05"/>
<stop offset="1" stop-color="#600C05" stop-opacity="0"/>
</radialGradient>
<radialGradient id="paint46_radial_2129_4370" cx="0" cy="0" r="1" gradientUnits="userSpaceOnUse" gradientTransform="translate(68.8494 74.4656) rotate(90) scale(4.2227 14.9792)">
<stop offset="0.28034" stop-color="#C3515A"/>
<stop offset="1" stop-color="#761810"/>
</radialGradient>
<radialGradient id="paint47_radial_2129_4370" cx="0" cy="0" r="1" gradientUnits="userSpaceOnUse" gradientTransform="translate(81.4988 49.9488) rotate(165.134) scale(6.62584 4.72192)">
<stop offset="0.744963" stop-color="#9C7269" stop-opacity="0"/>
<stop offset="0.864583" stop-color="#9C7269" stop-opacity="0.469031"/>
<stop offset="1" stop-color="#6C433B"/>
</radialGradient>
<radialGradient id="paint48_radial_2129_4370" cx="0" cy="0" r="1" gradientUnits="userSpaceOnUse" gradientTransform="translate(83.132 49.4065) rotate(90) scale(3.04117 3.04501)">
<stop offset="0.59375" stop-color="#BFDACD"/>
<stop offset="1" stop-color="#6E786F"/>
</radialGradient>
<radialGradient id="paint49_radial_2129_4370" cx="0" cy="0" r="1" gradientUnits="userSpaceOnUse" gradientTransform="translate(55.7365 50.2171) rotate(15.3537) scale(6.42024 4.71108)">
<stop offset="0.744963" stop-color="#9C7269" stop-opacity="0"/>
<stop offset="0.864583" stop-color="#9C7269" stop-opacity="0.469031"/>
<stop offset="1" stop-color="#6C433B"/>
</radialGradient>
<radialGradient id="paint50_radial_2129_4370" cx="0" cy="0" r="1" gradientUnits="userSpaceOnUse" gradientTransform="translate(56.2469 49.6753) rotate(90) scale(3.04117 3.04501)">
<stop offset="0.59375" stop-color="#BFDACD"/>
<stop offset="1" stop-color="#6E786F"/>
</radialGradient>
</defs>
</svg>
