<svg width="118" height="72" viewBox="0 0 118 72" fill="none" xmlns="http://www.w3.org/2000/svg">
<path d="M3 5C3 3.89543 3.89543 3 5 3H36V24H3V5Z" fill="#F06621" fill-opacity="0.18"/>
<path d="M3 26H36V46H3V26Z" fill="#F06621" fill-opacity="0.18"/>
<path d="M3 48H36V69H5C3.89543 69 3 68.1046 3 67V48Z" fill="#F06621" fill-opacity="0.18"/>
<path d="M38 3H113C114.105 3 115 3.89543 115 5V67C115 68.1046 114.105 69 113 69H38V3Z" fill="#F06621" fill-opacity="0.14"/>
<path d="M0.25 4C0.25 3.74923 0.274574 3.50445 0.32138 3.26787L0.0761336 3.21935C0.179947 2.69457 0.386413 2.2067 0.673736 1.77753L0.881477 1.91661C1.15533 1.50756 1.50756 1.15533 1.91661 0.881476L1.77753 0.673736C2.2067 0.386415 2.69457 0.179949 3.21935 0.0761316L3.26787 0.321378C3.50446 0.274574 3.74923 0.249995 4 0.249995L4.98214 0.249995L4.98214 -4.94017e-06L6.94643 -4.85431e-06L6.94643 0.249995L8.91071 0.249995L8.91071 -4.76844e-06L10.875 -4.68258e-06L10.875 0.249995L12.8393 0.249995L12.8393 -4.59672e-06L14.8036 -4.51086e-06L14.8036 0.249995L16.7679 0.249996L16.7679 -4.425e-06L18.7321 -4.33914e-06L18.7321 0.249996L20.6964 0.249996L20.6964 -4.25327e-06L22.6607 -4.16741e-06L22.6607 0.249996L24.625 0.249996L24.625 -4.08155e-06L26.5893 -3.99569e-06L26.5893 0.249996L28.5536 0.249996L28.5536 -3.90983e-06L30.5179 -3.82397e-06L30.5179 0.249996L32.4821 0.249996L32.4821 -3.7381e-06L34.4464 -3.65224e-06L34.4464 0.249996L36.4107 0.249996L36.4107 -3.56638e-06L38.375 -3.48052e-06L38.375 0.249997L40.3393 0.249997L40.3393 -3.39466e-06L42.3036 -3.3088e-06L42.3036 0.249997L44.2679 0.249997L44.2679 -3.22293e-06L46.2322 -3.13707e-06L46.2322 0.249997L48.1964 0.249997L48.1964 -3.05121e-06L50.1607 -2.96535e-06L50.1607 0.249997L52.125 0.249997L52.125 -2.87949e-06L54.0893 -2.79363e-06L54.0893 0.249997L56.0536 0.249997L56.0536 -2.70776e-06L58.0179 -2.6219e-06L58.0179 0.249997L59.9822 0.249997L59.9822 -2.53604e-06L61.9464 -2.45018e-06L61.9464 0.249998L63.9107 0.249998L63.9107 -2.36432e-06L65.875 -2.27846e-06L65.875 0.249998L67.8393 0.249998L67.8393 -2.19259e-06L69.8036 -2.10673e-06L69.8036 0.249998L71.7679 0.249998L71.7679 -2.02087e-06L73.7322 -1.93501e-06L73.7322 0.249998L75.6964 0.249998L75.6964 -1.84915e-06L77.6607 -1.76329e-06L77.6607 0.249998L79.625 0.249998L79.625 -1.67742e-06L81.5893 -1.59156e-06L81.5893 0.249998L83.5536 0.249998L83.5536 -1.5057e-06L85.5179 -1.41984e-06L85.5179 0.249999L87.4822 0.249999L87.4822 -1.33398e-06L89.4465 -1.24812e-06L89.4465 0.249999L91.4107 0.249999L91.4107 -1.16225e-06L93.375 -1.07639e-06L93.375 0.249999L95.3393 0.249999L95.3393 -9.9053e-07L97.3036 -9.04668e-07L97.3036 0.249999L99.2679 0.249999L99.2679 -8.18806e-07L101.232 -7.32945e-07L101.232 0.249999L103.196 0.249999L103.196 -6.47083e-07L105.161 -5.61221e-07L105.161 0.249999L107.125 0.25L107.125 -4.7536e-07L109.089 -3.89498e-07L109.089 0.25L111.054 0.25L111.054 -3.03636e-07L113.018 -2.17774e-07L113.018 0.25L114 0.25C114.251 0.25 114.496 0.274579 114.732 0.321383L114.781 0.0761361C115.305 0.179953 115.793 0.386419 116.222 0.673738L116.083 0.88148C116.492 1.15533 116.845 1.50757 117.119 1.91662L117.326 1.77754C117.614 2.2067 117.82 2.69457 117.924 3.21935L117.679 3.26787C117.725 3.50446 117.75 3.74923 117.75 4L117.75 5L118 5L118 7L117.75 7L117.75 9L118 9L118 11L117.75 11L117.75 13L118 13L118 15L117.75 15L117.75 17L118 17L118 19L117.75 19L117.75 21L118 21L118 23L117.75 23L117.75 25L118 25L118 27L117.75 27L117.75 29L118 29L118 31L117.75 31L117.75 33L118 33L118 35L117.75 35L117.75 37L118 37L118 39L117.75 39L117.75 41L118 41L118 43L117.75 43L117.75 45L118 45L118 47L117.75 47L117.75 49L118 49L118 51L117.75 51L117.75 53L118 53L118 55L117.75 55L117.75 57L118 57L118 59L117.75 59L117.75 61L118 61L118 63L117.75 63L117.75 65L118 65L118 67L117.75 67L117.75 68C117.75 68.2508 117.725 68.4955 117.679 68.7321L117.924 68.7807C117.82 69.3054 117.614 69.7933 117.326 70.2225L117.119 70.0834C116.845 70.4924 116.492 70.8447 116.083 71.1185L116.222 71.3263C115.793 71.6136 115.305 71.8201 114.781 71.9239L114.732 71.6786C114.496 71.7254 114.251 71.75 114 71.75L113.018 71.75L113.018 72L111.054 72L111.054 71.75L109.089 71.75L109.089 72L107.125 72L107.125 71.75L105.161 71.75L105.161 72L103.196 72L103.196 71.75L101.232 71.75L101.232 72L99.2679 72L99.2679 71.75L97.3036 71.75L97.3036 72L95.3393 72L95.3393 71.75L93.375 71.75L93.375 72L91.4107 72L91.4107 71.75L89.4464 71.75L89.4464 72L87.4821 72L87.4821 71.75L85.5178 71.75L85.5178 72L83.5536 72L83.5536 71.75L81.5893 71.75L81.5893 72L79.625 72L79.625 71.75L77.6607 71.75L77.6607 72L75.6964 72L75.6964 71.75L73.7321 71.75L73.7321 72L71.7678 72L71.7678 71.75L69.8036 71.75L69.8036 72L67.8393 72L67.8393 71.75L65.875 71.75L65.875 72L63.9107 72L63.9107 71.75L61.9464 71.75L61.9464 72L59.9821 72L59.9821 71.75L58.0178 71.75L58.0178 72L56.0535 72L56.0535 71.75L54.0893 71.75L54.0893 72L52.125 72L52.125 71.75L50.1607 71.75L50.1607 72L48.1964 72L48.1964 71.75L46.2321 71.75L46.2321 72L44.2678 72L44.2678 71.75L42.3035 71.75L42.3035 72L40.3393 72L40.3393 71.75L38.375 71.75L38.375 72L36.4107 72L36.4107 71.75L34.4464 71.75L34.4464 72L32.4821 72L32.4821 71.75L30.5178 71.75L30.5178 72L28.5535 72L28.5535 71.75L26.5892 71.75L26.5892 72L24.625 72L24.625 71.75L22.6607 71.75L22.6607 72L20.6964 72L20.6964 71.75L18.7321 71.75L18.7321 72L16.7678 72L16.7678 71.75L14.8035 71.75L14.8035 72L12.8392 72L12.8392 71.75L10.875 71.75L10.875 72L8.91066 72L8.91066 71.75L6.94639 71.75L6.94639 72L4.98209 72L4.98209 71.75L3.99999 71.75C3.74923 71.75 3.50445 71.7254 3.26786 71.6786L3.21935 71.9239C2.69457 71.8201 2.2067 71.6136 1.77753 71.3263L1.91661 71.1185C1.50756 70.8447 1.15532 70.4924 0.881474 70.0834L0.673734 70.2225C0.386418 69.7933 0.179944 69.3054 0.0761307 68.7806L0.321378 68.7321C0.274571 68.4955 0.249997 68.2508 0.249997 68L0.249997 67L-2.92866e-06 67L-2.84124e-06 65L0.249997 65L0.249997 63L-2.75382e-06 63L-2.6664e-06 61L0.249997 61L0.249997 59L-2.57897e-06 59L-2.49155e-06 57L0.249998 57L0.249998 55L-2.40413e-06 55L-2.3167e-06 53L0.249998 53L0.249998 51L-2.22928e-06 51L-2.14186e-06 49L0.249998 49L0.249998 47L-2.05444e-06 47L-1.96701e-06 45L0.249998 45L0.249998 43L-1.87959e-06 43L-1.79217e-06 41L0.249998 41L0.249998 39L-1.70474e-06 39L-1.61732e-06 37L0.249998 37L0.249998 35L-1.5299e-06 35L-1.44248e-06 33L0.249999 33L0.249999 31L-1.35505e-06 31L-1.26763e-06 29L0.249999 29L0.249999 27L-1.18021e-06 27L-1.09278e-06 25L0.249999 25L0.249999 23L-1.00536e-06 23L-9.17939e-07 21L0.249999 21L0.249999 19L-8.30517e-07 19L-7.43094e-07 17L0.249999 17L0.249999 15L-6.55671e-07 15L-5.68248e-07 13L0.249999 13L0.25 11L-4.80826e-07 11L-3.93403e-07 9L0.25 9L0.25 7L-3.0598e-07 7L-2.18557e-07 5L0.25 5L0.25 4Z" stroke="#F06621" stroke-opacity="0.2" stroke-width="0.5" stroke-dasharray="2 2"/>
</svg>
