<svg width="16" height="16" viewBox="0 0 16 16" fill="none" xmlns="http://www.w3.org/2000/svg">
<path fill-rule="evenodd" clip-rule="evenodd" d="M8 16C12.4183 16 16 12.4183 16 8C16 3.58172 12.4183 0 8 0C3.58172 0 0 3.58172 0 8C0 12.4183 3.58172 16 8 16ZM4.64125 4.6413C4.93415 4.34841 5.40902 4.34841 5.70192 4.6413L8.00002 6.9394L10.2981 4.6413C10.591 4.34841 11.0659 4.34841 11.3588 4.6413C11.6517 4.93419 11.6517 5.40907 11.3588 5.70196L9.06068 8.00006L11.3588 10.2982C11.6517 10.591 11.6517 11.0659 11.3588 11.3588C11.0659 11.6517 10.591 11.6517 10.2981 11.3588L8.00002 9.06072L5.70192 11.3588C5.40903 11.6517 4.93415 11.6517 4.64126 11.3588C4.34837 11.0659 4.34837 10.591 4.64126 10.2982L6.93935 8.00006L4.64125 5.70196C4.34836 5.40907 4.34836 4.93419 4.64125 4.6413Z" fill="#253453" fill-opacity="0.4"/>
</svg>
