<svg width="16" height="16" viewBox="0 0 16 16" fill="none" xmlns="http://www.w3.org/2000/svg">
<circle cx="8" cy="8" r="7" stroke="#253453" stroke-width="1.5" stroke-linejoin="round"/>
<path d="M6.995 5.75C6.995 6.30228 6.54728 6.75 5.995 6.75C5.44271 6.75 4.995 6.30228 4.995 5.75C4.995 5.19772 5.44271 4.75 5.995 4.75C6.54728 4.75 6.995 5.19772 6.995 5.75Z" fill="#253453"/>
<path d="M11.0001 5.75C11.0001 6.30228 10.5524 6.75 10.0001 6.75C9.44784 6.75 9.00012 6.30228 9.00012 5.75C9.00012 5.19772 9.44784 4.75 10.0001 4.75C10.5524 4.75 11.0001 5.19772 11.0001 5.75Z" fill="#253453"/>
<path d="M5 11C5 11 6 9.5 8 9.5C10 9.5 11 11 11 11" stroke="#253453" stroke-width="1.5" stroke-linecap="round" stroke-linejoin="round"/>
</svg>