<svg viewBox="0 0 240 120" fill="none" xmlns="http://www.w3.org/2000/svg">
<path fill-rule="evenodd" clip-rule="evenodd" d="M113.318 20.9777L117.981 12.9008L122.644 20.9777H118.788V84.2885H216.475V80.4329L224.551 85.0961L216.475 89.7594V85.9038H117.173V20.9777H113.318Z" fill="black"/>
<path d="M129.231 62.3077H146.041V72.8116H129.231V62.3077Z" fill="#FF8300"/>
<path d="M143.077 20.7692H159.888V31.2732H143.077V20.7692Z" fill="#7BB81E"/>
<path d="M161.538 66.9231H178.349V77.427H161.538V66.9231Z" fill="#0079C1"/>
<path d="M175.385 20.7692H192.195V31.2732H175.385V20.7692Z" fill="#7BB81E"/>
<path d="M193.846 57.6923H210.657V68.1963H193.846V57.6923Z" fill="#FF8300"/>
<path fill-rule="evenodd" clip-rule="evenodd" d="M138.712 42.3246L144.612 39.2308L144.341 45.887L142.014 44.4143L134.334 56.5506L133.359 55.9336L141.039 43.7973L138.712 42.3246Z" fill="black"/>
<path fill-rule="evenodd" clip-rule="evenodd" d="M177.09 38.7149L182.341 34.6154L183.266 41.2126L180.713 40.1801L171.304 63.4447L170.234 63.0121L179.644 39.7475L177.09 38.7149Z" fill="black"/>
<path fill-rule="evenodd" clip-rule="evenodd" d="M215.104 40.955L221.538 39.2308L219.814 45.6655L217.867 43.7182L208.1 53.4849L207.284 52.669L217.051 42.9023L215.104 40.955Z" fill="black"/>
<path fill-rule="evenodd" clip-rule="evenodd" d="M165.277 55.5153L166.154 62.3085L160.125 59.2675L162.255 57.7164L150.52 41.0063L151.413 40.3564L163.147 57.0665L165.277 55.5153Z" fill="black"/>
<path fill-rule="evenodd" clip-rule="evenodd" d="M202.53 50.7802L203.077 57.692L197.282 54.3879L199.451 52.8965L188.296 34.9275L189.205 34.3026L200.36 52.2716L202.53 50.7802Z" fill="black"/>
<path d="M106.284 17.3287C103.282 15.7503 88.2681 18.9069 86.8457 27.4302L88.5841 86.9353C100.437 96.4057 126.703 113.073 136.944 103.982C149.745 92.6175 139.156 75.2553 127.936 74.7818C129.779 71.9407 132.677 65.564 129.516 62.786C130.938 62.4704 133.72 60.3237 133.467 54.2627C133.151 46.6865 117.663 47.3178 113.87 42.267C110.077 37.2162 120.192 31.534 111.184 25.2204C111.184 23.0105 109.287 18.9071 106.284 17.3287Z" fill="url(#paint0_linear_2117_4467)"/>
<path d="M106.284 17.3287C103.282 15.7503 88.2681 18.9069 86.8457 27.4302L88.5841 86.9353C100.437 96.4057 126.703 113.073 136.944 103.982C149.745 92.6175 139.156 75.2553 127.936 74.7818C129.779 71.9407 132.677 65.564 129.516 62.786C130.938 62.4704 133.72 60.3237 133.467 54.2627C133.151 46.6865 117.663 47.3178 113.87 42.267C110.077 37.2162 120.192 31.534 111.184 25.2204C111.184 23.0105 109.287 18.9071 106.284 17.3287Z" fill="url(#paint1_radial_2117_4467)"/>
<path d="M106.284 17.3287C103.282 15.7503 88.2681 18.9069 86.8457 27.4302L88.5841 86.9353C100.437 96.4057 126.703 113.073 136.944 103.982C149.745 92.6175 139.156 75.2553 127.936 74.7818C129.779 71.9407 132.677 65.564 129.516 62.786C130.938 62.4704 133.72 60.3237 133.467 54.2627C133.151 46.6865 117.663 47.3178 113.87 42.267C110.077 37.2162 120.192 31.534 111.184 25.2204C111.184 23.0105 109.287 18.9071 106.284 17.3287Z" fill="url(#paint2_radial_2117_4467)"/>
<path fill-rule="evenodd" clip-rule="evenodd" d="M136.68 78.6201C126.918 88.1842 112.832 80.3781 115.293 70.6779C118.295 58.8401 105.652 49.3698 99.3309 59.1554L90.7257 88.6034C103.354 98.2067 127.282 112.56 136.944 103.982C146.176 95.7859 143.243 84.4702 136.68 78.6201Z" fill="url(#paint3_linear_2117_4467)"/>
<path fill-rule="evenodd" clip-rule="evenodd" d="M139.422 101.354C138.737 94.1252 129.233 91.6994 118.453 91.9855C103.755 92.3755 97.9084 76.3595 101.227 64.8374L88.3371 78.476L88.5842 86.9349C100.437 96.4052 126.703 113.073 136.944 103.981C137.896 103.136 138.719 102.257 139.422 101.354Z" fill="url(#paint4_linear_2117_4467)"/>
<path d="M32.1646 97.9837C32.2699 100.036 33.1444 104.108 35.7995 103.982L62.982 100.509L57.1346 21.1163C52.5515 16.3285 43.2272 7.57372 42.5951 10.8568C42.279 11.4355 40.4774 13.6032 35.7995 17.6438C29.9521 22.6947 26.7913 33.4277 32.1646 38.3207C37.5379 43.2137 27.7395 49.8429 25.527 43.845C16.2027 50.1586 18.0992 71.1511 24.5787 74.7814C20.1537 76.202 20.9439 85.0409 24.5787 86.6193C20.9439 92.775 28.0556 99.2464 32.1646 97.9837Z" fill="url(#paint5_linear_2117_4467)"/>
<path d="M32.1646 97.9837C32.2699 100.036 33.1444 104.108 35.7995 103.982L62.982 100.509L57.1346 21.1163C52.5515 16.3285 43.2272 7.57372 42.5951 10.8568C42.279 11.4355 40.4774 13.6032 35.7995 17.6438C29.9521 22.6947 26.7913 33.4277 32.1646 38.3207C37.5379 43.2137 27.7395 49.8429 25.527 43.845C16.2027 50.1586 18.0992 71.1511 24.5787 74.7814C20.1537 76.202 20.9439 85.0409 24.5787 86.6193C20.9439 92.775 28.0556 99.2464 32.1646 97.9837Z" fill="url(#paint6_radial_2117_4467)"/>
<path d="M32.1646 97.9837C32.2699 100.036 33.1444 104.108 35.7995 103.982L62.982 100.509L57.1346 21.1163C52.5515 16.3285 43.2272 7.57372 42.5951 10.8568C42.279 11.4355 40.4774 13.6032 35.7995 17.6438C29.9521 22.6947 26.7913 33.4277 32.1646 38.3207C37.5379 43.2137 27.7395 49.8429 25.527 43.845C16.2027 50.1586 18.0992 71.1511 24.5787 74.7814C20.1537 76.202 20.9439 85.0409 24.5787 86.6193C20.9439 92.775 28.0556 99.2464 32.1646 97.9837Z" fill="url(#paint7_radial_2117_4467)"/>
<path d="M32.1646 97.9837C32.2699 100.036 33.1444 104.108 35.7995 103.982L62.982 100.509L57.1346 21.1163C52.5515 16.3285 43.2272 7.57372 42.5951 10.8568C42.279 11.4355 40.4774 13.6032 35.7995 17.6438C29.9521 22.6947 26.7913 33.4277 32.1646 38.3207C37.5379 43.2137 27.7395 49.8429 25.527 43.845C16.2027 50.1586 18.0992 71.1511 24.5787 74.7814C20.1537 76.202 20.9439 85.0409 24.5787 86.6193C20.9439 92.775 28.0556 99.2464 32.1646 97.9837Z" fill="url(#paint8_radial_2117_4467)"/>
<path d="M29.478 59.7865C29.9521 48.8956 49.5488 51.7367 46.7041 40.2145L65.9847 100.667L41.8049 105.56C48.6006 103.508 51.1291 84.725 38.328 82.3574C39.645 81.1999 42.1842 78.0326 41.8049 74.6233C41.3308 70.3617 29.0038 70.6773 29.478 59.7865Z" fill="url(#paint9_linear_2117_4467)"/>
<path d="M150.943 120H30.4698C31.023 116.807 31.4129 113.442 31.2162 111.085C30.7421 105.402 33.5868 100.509 38.328 99.4045C38.9728 99.2542 39.7873 99.0864 40.7177 98.8948C46.6272 97.6772 57.2123 95.4963 58.7143 90.7234L67.2484 115.82L76.5727 119.45C87.6354 112.032 110.298 97.6367 112.447 99.4045C113.919 100.615 116.815 100.784 120.536 101C123.606 101.178 127.238 101.389 131.096 102.246C139.63 104.14 147.058 109.348 148.954 114.399C149.598 116.114 150.274 118.05 150.943 120Z" fill="url(#paint10_radial_2117_4467)"/>
<path d="M150.943 120H30.4698C31.023 116.807 31.4129 113.442 31.2162 111.085C30.7421 105.402 33.5868 100.509 38.328 99.4045C38.9728 99.2542 39.7873 99.0864 40.7177 98.8948C46.6272 97.6772 57.2123 95.4963 58.7143 90.7234L67.2484 115.82L76.5727 119.45C87.6354 112.032 110.298 97.6367 112.447 99.4045C113.919 100.615 116.815 100.784 120.536 101C123.606 101.178 127.238 101.389 131.096 102.246C139.63 104.14 147.058 109.348 148.954 114.399C149.598 116.114 150.274 118.05 150.943 120Z" fill="url(#paint11_radial_2117_4467)"/>
<path d="M96.5271 120H62.5467C53.5412 109.338 55.6182 91.3378 61.5599 90.407L97.1187 84.8828C97.5143 84.8696 98.1396 84.7207 98.8964 84.5404C101.163 84.0004 104.61 83.1793 106.601 84.8833C107.621 85.7571 108.395 87.8255 109.283 90.2021C110.705 94.007 112.423 98.6021 115.925 100.351C113.719 106.866 106.04 114.427 96.5271 120Z" fill="url(#paint12_radial_2117_4467)"/>
<path d="M96.5271 120H62.5467C53.5412 109.338 55.6182 91.3378 61.5599 90.407L97.1187 84.8828C97.5143 84.8696 98.1396 84.7207 98.8964 84.5404C101.163 84.0004 104.61 83.1793 106.601 84.8833C107.621 85.7571 108.395 87.8255 109.283 90.2021C110.705 94.007 112.423 98.6021 115.925 100.351C113.719 106.866 106.04 114.427 96.5271 120Z" fill="url(#paint13_radial_2117_4467)"/>
<path d="M73.0964 115.661C72.4642 112.504 65.6686 97.6671 62.5078 91.8271L96.486 76.3589C97.1709 80.2523 99.9102 87.5655 102.123 90.2487C101.543 90.8801 100.563 91.9534 98.5405 96.8779C96.0119 103.034 87.0038 115.661 73.0964 115.661Z" fill="#D9B3A2"/>
<path d="M73.0964 115.661C72.4642 112.504 65.6686 97.6671 62.5078 91.8271L96.486 76.3589C97.1709 80.2523 99.9102 87.5655 102.123 90.2487C101.543 90.8801 100.563 91.9534 98.5405 96.8779C96.0119 103.034 87.0038 115.661 73.0964 115.661Z" fill="url(#paint14_radial_2117_4467)"/>
<path d="M73.0964 115.661C72.4642 112.504 65.6686 97.6671 62.5078 91.8271L96.486 76.3589C97.1709 80.2523 99.9102 87.5655 102.123 90.2487C101.543 90.8801 100.563 91.9534 98.5405 96.8779C96.0119 103.034 87.0038 115.661 73.0964 115.661Z" fill="url(#paint15_radial_2117_4467)"/>
<path d="M73.0964 115.661C72.4642 112.504 65.6686 97.6671 62.5078 91.8271L96.486 76.3589C97.1709 80.2523 99.9102 87.5655 102.123 90.2487C101.543 90.8801 100.563 91.9534 98.5405 96.8779C96.0119 103.034 87.0038 115.661 73.0964 115.661Z" fill="url(#paint16_radial_2117_4467)"/>
<path d="M42.9111 10.067C43.754 13.592 47.3362 20.6422 54.922 20.6422L69.4615 26.0086L74.0446 5.48959C71.9901 4.54258 66.9013 2.61699 62.982 2.49072C58.0828 2.33289 57.2926 5.96317 53.4997 6.27885C49.7068 6.59453 45.2817 7.22588 42.9111 10.067Z" fill="url(#paint17_linear_2117_4467)"/>
<path d="M42.9111 10.067C43.754 13.592 47.3362 20.6422 54.922 20.6422L69.4615 26.0086L74.0446 5.48959C71.9901 4.54258 66.9013 2.61699 62.982 2.49072C58.0828 2.33289 57.2926 5.96317 53.4997 6.27885C49.7068 6.59453 45.2817 7.22588 42.9111 10.067Z" fill="url(#paint18_radial_2117_4467)"/>
<path d="M83.369 3.12307C69.6197 2.49172 63.7722 12.7512 67.8813 22.0636L88.7423 27.2724C88.4263 23.0108 96.4862 19.5383 99.805 19.5383C103.124 19.5383 104.23 13.067 98.6987 11.8043C93.1674 10.5415 89.6906 3.12307 83.369 3.12307Z" fill="url(#paint19_linear_2117_4467)"/>
<path d="M83.369 3.12307C69.6197 2.49172 63.7722 12.7512 67.8813 22.0636L88.7423 27.2724C88.4263 23.0108 96.4862 19.5383 99.805 19.5383C103.124 19.5383 104.23 13.067 98.6987 11.8043C93.1674 10.5415 89.6906 3.12307 83.369 3.12307Z" fill="url(#paint20_radial_2117_4467)"/>
<path d="M83.369 3.12307C69.6197 2.49172 63.7722 12.7512 67.8813 22.0636L88.7423 27.2724C88.4263 23.0108 96.4862 19.5383 99.805 19.5383C103.124 19.5383 104.23 13.067 98.6987 11.8043C93.1674 10.5415 89.6906 3.12307 83.369 3.12307Z" fill="url(#paint21_radial_2117_4467)"/>
<path d="M97.9874 65.6267C97.5397 67.0473 97.1815 69.6989 100.595 70.5197C106.531 71.947 109.479 61.7209 108.294 55.6212C107.609 55.1393 106.661 54.9162 105.41 55.052C101.775 55.4466 99.4042 60.1026 99.0882 60.1658C98.7721 60.2289 98.3035 61.8912 97.9874 65.6267Z" fill="#D9B3A2"/>
<path d="M97.9874 65.6267C97.5397 67.0473 97.1815 69.6989 100.595 70.5197C106.531 71.947 109.479 61.7209 108.294 55.6212C107.609 55.1393 106.661 54.9162 105.41 55.052C101.775 55.4466 99.4042 60.1026 99.0882 60.1658C98.7721 60.2289 98.3035 61.8912 97.9874 65.6267Z" fill="url(#paint22_radial_2117_4467)"/>
<path d="M97.9874 65.6267C97.5397 67.0473 97.1815 69.6989 100.595 70.5197C106.531 71.947 109.479 61.7209 108.294 55.6212C107.609 55.1393 106.661 54.9162 105.41 55.052C101.775 55.4466 99.4042 60.1026 99.0882 60.1658C98.7721 60.2289 98.3035 61.8912 97.9874 65.6267Z" fill="url(#paint23_radial_2117_4467)"/>
<path d="M97.9874 65.6267C97.5397 67.0473 97.1815 69.6989 100.595 70.5197C106.531 71.947 109.479 61.7209 108.294 55.6212C107.609 55.1393 106.661 54.9162 105.41 55.052C101.775 55.4466 99.4042 60.1026 99.0882 60.1658C98.7721 60.2289 98.3035 61.8912 97.9874 65.6267Z" fill="url(#paint24_radial_2117_4467)"/>
<path d="M42.9113 56.6302C42.7533 49.5275 47.6525 32.9544 46.5462 26.483C47.231 25.536 48.4742 23.0737 53.6579 20.8008C60.1375 17.9597 64.2465 20.959 68.1974 20.8012C72.1484 20.6434 78.6006 17.1931 84.6334 23.0105C89.2165 27.43 96.3282 28.3771 96.3282 31.5339C96.3282 38.6366 99.489 49.054 100.437 53.947C101.385 58.84 98.3827 75.8865 96.3282 79.0433C94.2737 82.2001 77.8377 93.0909 75.4672 94.1958C73.0966 95.3007 65.8268 94.5115 63.2982 94.1958C60.7696 93.8801 51.4454 86.6196 50.023 81.8844C48.6007 77.1492 43.0694 63.7329 42.9113 56.6302Z" fill="#E1B9A7"/>
<path d="M42.9113 56.6302C42.7533 49.5275 47.6525 32.9544 46.5462 26.483C47.231 25.536 48.4742 23.0737 53.6579 20.8008C60.1375 17.9597 64.2465 20.959 68.1974 20.8012C72.1484 20.6434 78.6006 17.1931 84.6334 23.0105C89.2165 27.43 96.3282 28.3771 96.3282 31.5339C96.3282 38.6366 99.489 49.054 100.437 53.947C101.385 58.84 98.3827 75.8865 96.3282 79.0433C94.2737 82.2001 77.8377 93.0909 75.4672 94.1958C73.0966 95.3007 65.8268 94.5115 63.2982 94.1958C60.7696 93.8801 51.4454 86.6196 50.023 81.8844C48.6007 77.1492 43.0694 63.7329 42.9113 56.6302Z" fill="url(#paint25_radial_2117_4467)"/>
<path d="M42.9113 56.6302C42.7533 49.5275 47.6525 32.9544 46.5462 26.483C47.231 25.536 48.4742 23.0737 53.6579 20.8008C60.1375 17.9597 64.2465 20.959 68.1974 20.8012C72.1484 20.6434 78.6006 17.1931 84.6334 23.0105C89.2165 27.43 96.3282 28.3771 96.3282 31.5339C96.3282 38.6366 99.489 49.054 100.437 53.947C101.385 58.84 98.3827 75.8865 96.3282 79.0433C94.2737 82.2001 77.8377 93.0909 75.4672 94.1958C73.0966 95.3007 65.8268 94.5115 63.2982 94.1958C60.7696 93.8801 51.4454 86.6196 50.023 81.8844C48.6007 77.1492 43.0694 63.7329 42.9113 56.6302Z" fill="url(#paint26_radial_2117_4467)"/>
<path d="M42.9113 56.6302C42.7533 49.5275 47.6525 32.9544 46.5462 26.483C47.231 25.536 48.4742 23.0737 53.6579 20.8008C60.1375 17.9597 64.2465 20.959 68.1974 20.8012C72.1484 20.6434 78.6006 17.1931 84.6334 23.0105C89.2165 27.43 96.3282 28.3771 96.3282 31.5339C96.3282 38.6366 99.489 49.054 100.437 53.947C101.385 58.84 98.3827 75.8865 96.3282 79.0433C94.2737 82.2001 77.8377 93.0909 75.4672 94.1958C73.0966 95.3007 65.8268 94.5115 63.2982 94.1958C60.7696 93.8801 51.4454 86.6196 50.023 81.8844C48.6007 77.1492 43.0694 63.7329 42.9113 56.6302Z" fill="url(#paint27_radial_2117_4467)"/>
<path d="M42.9113 56.6302C42.7533 49.5275 47.6525 32.9544 46.5462 26.483C47.231 25.536 48.4742 23.0737 53.6579 20.8008C60.1375 17.9597 64.2465 20.959 68.1974 20.8012C72.1484 20.6434 78.6006 17.1931 84.6334 23.0105C89.2165 27.43 96.3282 28.3771 96.3282 31.5339C96.3282 38.6366 99.489 49.054 100.437 53.947C101.385 58.84 98.3827 75.8865 96.3282 79.0433C94.2737 82.2001 77.8377 93.0909 75.4672 94.1958C73.0966 95.3007 65.8268 94.5115 63.2982 94.1958C60.7696 93.8801 51.4454 86.6196 50.023 81.8844C48.6007 77.1492 43.0694 63.7329 42.9113 56.6302Z" fill="url(#paint28_radial_2117_4467)"/>
<path d="M42.9113 56.6302C42.7533 49.5275 47.6525 32.9544 46.5462 26.483C47.231 25.536 48.4742 23.0737 53.6579 20.8008C60.1375 17.9597 64.2465 20.959 68.1974 20.8012C72.1484 20.6434 78.6006 17.1931 84.6334 23.0105C89.2165 27.43 96.3282 28.3771 96.3282 31.5339C96.3282 38.6366 99.489 49.054 100.437 53.947C101.385 58.84 98.3827 75.8865 96.3282 79.0433C94.2737 82.2001 77.8377 93.0909 75.4672 94.1958C73.0966 95.3007 65.8268 94.5115 63.2982 94.1958C60.7696 93.8801 51.4454 86.6196 50.023 81.8844C48.6007 77.1492 43.0694 63.7329 42.9113 56.6302Z" fill="url(#paint29_radial_2117_4467)"/>
<path d="M70.9576 66.814C69.1402 64.4431 69.0794 56.9416 71.6685 49.3504C74.2576 41.7592 76.726 46.427 75.3036 51.3262C74.1658 55.2456 78.359 62.4679 79.4916 65.7077C77.7005 66.7349 72.1291 68.3424 70.9576 66.814Z" fill="url(#paint30_radial_2117_4467)"/>
<path d="M70.4099 55.5262C70.2519 53.4743 72.5434 44.9511 76.3363 42.8992C81.9994 39.7424 92.2192 40.3734 92.2192 46.8451C91.1129 60.2613 70.5679 57.578 70.4099 55.5262Z" fill="url(#paint31_radial_2117_4467)"/>
<path d="M65.1919 55.7951C65.35 53.7433 63.2332 45.199 59.4403 43.1471C53.7773 39.9903 43.3827 40.6425 43.3827 47.1141C44.489 60.5302 65.0339 57.847 65.1919 55.7951Z" fill="url(#paint32_radial_2117_4467)"/>
<path d="M76.5342 62.386C78.6235 65.5276 76.76 70.2557 74.3225 70.6182C72.3725 70.9077 68.2352 69.2135 68.2352 67.4005C68.4674 62.3256 74.445 59.2444 76.5342 62.386Z" fill="url(#paint33_radial_2117_4467)"/>
<path d="M58.8674 63.4548C57.4941 66.3091 59.6789 69.4846 61.7776 69.7855C63.4566 70.0258 65.0458 68.8378 65.0458 67.3333C64.7939 60.5706 61.3961 58.1994 58.8674 63.4548Z" fill="url(#paint34_radial_2117_4467)"/>
<path d="M58.8674 63.4548C57.4941 66.3091 59.6789 69.4846 61.7776 69.7855C63.4566 70.0258 65.0458 68.8378 65.0458 67.3333C64.7939 60.5706 61.3961 58.1994 58.8674 63.4548Z" fill="url(#paint35_radial_2117_4467)"/>
<path d="M73.9601 63.6946C75.2418 65.7066 74.1737 68.4152 72.6785 68.6473C71.4822 68.8328 68.8691 68.0672 68.8691 66.9061C69.0115 63.6559 72.6785 61.6825 73.9601 63.6946Z" fill="#FBE0D4"/>
<path d="M68.6658 67.3658C67.7581 68.237 66.1174 70.4476 64.9204 66.3349C58.9472 70.6949 64.002 72.616 67.8056 71.9193C69.0063 71.6994 69.0813 66.967 68.6658 67.3658Z" fill="url(#paint36_radial_2117_4467)"/>
<path d="M63.0025 68.3639C59.7457 67.6531 60.0978 63.2192 63.3346 63.5894L64.704 65.0888C65.1881 66.7461 65.5336 68.9164 63.0025 68.3639Z" fill="#FBE0D4"/>
<path d="M66.3996 63.415C66.7157 61.9155 70.4043 51.7992 61.1788 44.5887C63.9443 48.5347 65.7465 56.2429 63.3913 61.9927C62.6801 63.7289 62.6857 67.9749 66.3996 68.6852C66.0045 68.0012 65.9301 65.6424 66.3996 63.415Z" fill="url(#paint37_radial_2117_4467)"/>
<path d="M66.3996 63.415C66.7157 61.9155 70.4043 51.7992 61.1788 44.5887C63.9443 48.5347 65.7465 56.2429 63.3913 61.9927C62.6801 63.7289 62.6857 67.9749 66.3996 68.6852C66.0045 68.0012 65.9301 65.6424 66.3996 63.415Z" fill="url(#paint38_radial_2117_4467)"/>
<path d="M66.2836 66.2863C65.3265 66.1543 64.4651 64.4677 64.0822 61.1178C62.3595 61.1178 62.168 63.0321 60.9237 63.4149C59.6794 63.7978 59.3398 66.7343 60.1317 68.5518C60.9237 70.3692 66.2836 71.3591 67.2408 70.0191C68.1979 68.6791 68.1022 69.062 71.6436 69.062C75.1849 69.062 74.6331 65.418 74.0588 63.7909C73.4846 62.1637 71.1387 62.9394 70.2264 63.7909C69.3375 64.6206 67.2408 66.4182 66.2836 66.2863Z" fill="url(#paint39_radial_2117_4467)"/>
<path d="M71.4101 64.9969C70.3211 65.0364 69.7403 66.2202 69.0143 66.9699C69.8492 66.2998 71.6279 67.3251 72.2813 66.9699C72.9347 66.6148 72.4991 64.9575 71.4101 64.9969Z" fill="#120000"/>
<path d="M67.9604 83.4231C63.8514 83.3837 60.4931 80.7793 60.0585 78.4512C61.5993 75.0971 74.9931 76.3993 77.6797 77.8198C77.2846 79.2799 72.0694 83.4626 67.9604 83.4231Z" fill="url(#paint40_radial_2117_4467)"/>
<path d="M67.9604 83.4231C63.8514 83.3837 60.4931 80.7793 60.0585 78.4512C61.5993 75.0971 74.9931 76.3993 77.6797 77.8198C77.2846 79.2799 72.0694 83.4626 67.9604 83.4231Z" fill="url(#paint41_radial_2117_4467)"/>
<path d="M67.9604 83.4231C63.8514 83.3837 60.4931 80.7793 60.0585 78.4512C61.5993 75.0971 74.9931 76.3993 77.6797 77.8198C77.2846 79.2799 72.0694 83.4626 67.9604 83.4231Z" fill="url(#paint42_radial_2117_4467)"/>
<path d="M67.9604 83.4231C63.8514 83.3837 60.4931 80.7793 60.0585 78.4512C61.5993 75.0971 74.9931 76.3993 77.6797 77.8198C77.2846 79.2799 72.0694 83.4626 67.9604 83.4231Z" fill="url(#paint43_radial_2117_4467)"/>
<path d="M67.9604 83.4231C63.8514 83.3837 60.4931 80.7793 60.0585 78.4512C61.5993 75.0971 74.9931 76.3993 77.6797 77.8198C77.2846 79.2799 72.0694 83.4626 67.9604 83.4231Z" fill="url(#paint44_radial_2117_4467)"/>
<path d="M63.3889 65.0359C61.1294 64.8778 62.2557 67.9712 64.1228 66.9451C64.6871 66.5978 63.9836 65.5358 63.3889 65.0359Z" fill="#120000"/>
<path d="M64.207 73.4004C62.271 73.4793 60.5326 76.5967 58.2411 77.8199C61.0067 80.1088 64.5231 77.1488 65.2738 77.1488C66.0244 77.1488 67.2492 78.0169 67.9999 78.0169C68.7506 78.0169 69.8569 77.2277 70.7656 77.1488C71.6743 77.0699 76.4154 79.5164 79.4577 77.425C77.9958 77.4645 73.5313 73.4004 71.4768 73.4004C69.4223 73.4004 68.8691 74.8999 67.9999 74.9393C67.1307 74.9788 66.143 73.3215 64.207 73.4004Z" fill="url(#paint45_radial_2117_4467)"/>
<path d="M80.5514 44.9704C79.6041 45.0514 76.2315 46.7918 75.6252 50.394H87.9786C88.9386 50.475 90.7449 50.4912 90.2901 49.9083C86.3871 44.8085 81.4987 44.8895 80.5514 44.9704Z" fill="url(#paint46_radial_2117_4467)"/>
<path d="M80.5969 47.3965C78.9061 47.4754 76.9079 50.0797 74.756 51.0268V51.4216C75.1915 51.29 76.4214 51.3645 78.1376 52.053C80.5969 53.0394 85.4772 53.4345 88.7819 50.5932C86.0151 47.3575 82.2877 47.3176 80.5969 47.3965Z" fill="#FBF1F2"/>
<path d="M86.177 49.4065C86.177 51.0861 84.8137 52.4477 83.132 52.4477C81.4503 52.4477 80.087 51.0861 80.087 49.4065C80.087 47.7269 81.4503 46.3653 83.132 46.3653C84.8137 46.3653 86.177 47.7269 86.177 49.4065Z" fill="url(#paint47_radial_2117_4467)"/>
<path d="M85.3952 48.783C85.3952 49.7817 84.5845 50.5912 83.5846 50.5912C82.5847 50.5912 81.7741 49.7817 81.7741 48.783C81.7741 47.7843 82.5847 46.9747 83.5846 46.9747C84.5845 46.9747 85.3952 47.7843 85.3952 48.783Z" fill="#080C07"/>
<path d="M83.129 48.293C83.129 48.6823 82.8131 48.9979 82.4233 48.9979C82.0335 48.9979 81.7176 48.6823 81.7176 48.293C81.7176 47.9038 82.0335 47.5882 82.4233 47.5882C82.8131 47.5882 83.129 47.9038 83.129 48.293Z" fill="white"/>
<path d="M91.2315 49.9221C90.802 49.7379 88.832 48.7144 87.1144 47.6726C85.86 46.9117 83.4338 45.7962 80.8302 46.2285C78.2266 46.6608 77.1796 49.0144 75.0325 50.9481C77.2154 50.159 78.3924 47.6262 80.8302 47.357C85.4989 46.8414 87.1437 49.5961 88.2302 50.4746C89.4095 51.428 90.7424 50.4483 91.2315 49.9221Z" fill="#080C07"/>
<path d="M56.6522 45.2387C57.5681 45.3196 60.8285 47.0601 61.4146 50.6623H49.472C48.544 50.7432 46.7978 50.7594 47.2374 50.1766C51.0107 45.0768 55.7364 45.1577 56.6522 45.2387Z" fill="url(#paint48_radial_2117_4467)"/>
<path d="M56.6083 47.6653C58.2428 47.7442 60.1746 50.3486 62.2549 51.2956V51.6904C61.8339 51.5588 60.645 51.6334 58.9858 52.3218C56.6083 53.3083 51.8903 53.7033 48.6955 50.862C51.3702 47.6263 54.9737 47.5864 56.6083 47.6653Z" fill="#FBF1F2"/>
<path d="M59.2918 49.6753C59.2918 51.3549 57.9285 52.7165 56.2468 52.7165C54.5651 52.7165 53.2018 51.3549 53.2018 49.6753C53.2018 47.9957 54.5651 46.6341 56.2468 46.6341C57.9285 46.6341 59.2918 47.9957 59.2918 49.6753Z" fill="url(#paint49_radial_2117_4467)"/>
<path d="M58.51 49.0512C58.51 50.0499 57.6993 50.8595 56.6994 50.8595C55.6995 50.8595 54.8889 50.0499 54.8889 49.0512C54.8889 48.0526 55.6995 47.243 56.6994 47.243C57.6993 47.243 58.51 48.0526 58.51 49.0512Z" fill="#080C07"/>
<path d="M56.2438 48.5612C56.2438 48.9505 55.9279 49.266 55.5381 49.266C55.1483 49.266 54.8324 48.9505 54.8324 48.5612C54.8324 48.1719 55.1483 47.8564 55.5381 47.8564C55.9279 47.8564 56.2438 48.1719 56.2438 48.5612Z" fill="white"/>
<path d="M46.3274 50.191C46.7425 50.0068 48.647 48.9835 50.3075 47.9418C51.5202 47.1811 54.088 46.057 56.6051 46.4892C59.1221 46.9214 59.912 49.2835 61.9876 51.2168C59.8774 50.4278 58.7394 47.8955 56.3827 47.6263C51.8693 47.1108 50.2792 49.865 49.2288 50.7433C48.0888 51.6967 46.8002 50.717 46.3274 50.191Z" fill="#080C07"/>
<path d="M44.9659 46.4491C50.4183 38.794 57.0559 40.5302 60.9278 43.7659C61.8909 44.4978 61.4019 46.0942 59.6635 45.1077C57.2989 43.7659 53.421 42.898 50.1812 43.7659C46.9414 44.6338 46.2301 46.1335 45.5189 46.765C44.8078 47.3966 44.3188 47.3578 44.9659 46.4491Z" fill="#583F2B"/>
<path d="M93.681 45.8965C86.8063 36.071 79.5698 39.1879 75.6979 42.4236C74.7348 43.1555 75.2238 44.7519 76.9622 43.7655C79.3268 42.4236 83.9221 41.1616 87.1619 42.0295C90.4017 42.8974 92.6001 45.4216 93.128 46.2124C93.6811 47.0409 94.2891 46.7657 93.681 45.8965Z" fill="#583F2B"/>
<defs>
<linearGradient id="paint0_linear_2117_4467" x1="114.82" y1="16.937" x2="114.82" y2="106.61" gradientUnits="userSpaceOnUse">
<stop stop-color="#543D2A"/>
<stop offset="1" stop-color="#281B10"/>
</linearGradient>
<radialGradient id="paint1_radial_2117_4467" cx="0" cy="0" r="1" gradientUnits="userSpaceOnUse" gradientTransform="translate(112.764 27.4302) rotate(148.083) scale(17.3155 5.01934)">
<stop stop-color="#A67E5E"/>
<stop offset="1" stop-color="#7C5D43" stop-opacity="0"/>
</radialGradient>
<radialGradient id="paint2_radial_2117_4467" cx="0" cy="0" r="1" gradientUnits="userSpaceOnUse" gradientTransform="translate(127.462 47.9492) rotate(168.704) scale(27.3972 7.93696)">
<stop stop-color="#A67E5E"/>
<stop offset="1" stop-color="#7C5D43" stop-opacity="0"/>
</radialGradient>
<linearGradient id="paint3_linear_2117_4467" x1="127.698" y1="82.3424" x2="78.3893" y2="83.973" gradientUnits="userSpaceOnUse">
<stop stop-color="#271A10"/>
<stop offset="1" stop-color="#271A10" stop-opacity="0"/>
</linearGradient>
<linearGradient id="paint4_linear_2117_4467" x1="124.611" y1="86.9341" x2="76.2581" y2="88.8691" gradientUnits="userSpaceOnUse">
<stop stop-color="#271A10"/>
<stop offset="1" stop-color="#271A10" stop-opacity="0"/>
</linearGradient>
<linearGradient id="paint5_linear_2117_4467" x1="31.0583" y1="24.5887" x2="41.0267" y2="103.988" gradientUnits="userSpaceOnUse">
<stop stop-color="#51351F"/>
<stop offset="1" stop-color="#301B0B"/>
</linearGradient>
<radialGradient id="paint6_radial_2117_4467" cx="0" cy="0" r="1" gradientUnits="userSpaceOnUse" gradientTransform="translate(20.7858 50.1586) rotate(13.2839) scale(30.0409 9.53092)">
<stop stop-color="#A67E5E"/>
<stop offset="1" stop-color="#7C5D43" stop-opacity="0"/>
</radialGradient>
<radialGradient id="paint7_radial_2117_4467" cx="0" cy="0" r="1" gradientUnits="userSpaceOnUse" gradientTransform="translate(32.3226 22.2211) rotate(21.5163) scale(19.3659 6.1454)">
<stop stop-color="#A67E5E"/>
<stop offset="1" stop-color="#7C5D43" stop-opacity="0"/>
</radialGradient>
<radialGradient id="paint8_radial_2117_4467" cx="0" cy="0" r="1" gradientUnits="userSpaceOnUse" gradientTransform="translate(19.1211 78.096) rotate(11.3938) scale(22.3713 7.09739)">
<stop stop-color="#A67E5E"/>
<stop offset="1" stop-color="#7C5D43" stop-opacity="0"/>
</radialGradient>
<linearGradient id="paint9_linear_2117_4467" x1="55.3962" y1="74.7811" x2="20.7858" y2="75.4141" gradientUnits="userSpaceOnUse">
<stop stop-color="#271A10"/>
<stop offset="1" stop-color="#271A10" stop-opacity="0"/>
</linearGradient>
<radialGradient id="paint10_radial_2117_4467" cx="0" cy="0" r="1" gradientUnits="userSpaceOnUse" gradientTransform="translate(75.625 111.716) rotate(48.0072) scale(44.1727 57.8303)">
<stop stop-color="#071401"/>
<stop offset="1" stop-color="#4F7040"/>
</radialGradient>
<radialGradient id="paint11_radial_2117_4467" cx="0" cy="0" r="1" gradientUnits="userSpaceOnUse" gradientTransform="translate(141.685 133.656) rotate(-112.173) scale(33.9183 18.0273)">
<stop stop-color="#756B68"/>
<stop offset="1" stop-color="#756B68" stop-opacity="0"/>
</radialGradient>
<radialGradient id="paint12_radial_2117_4467" cx="0" cy="0" r="1" gradientUnits="userSpaceOnUse" gradientTransform="translate(84.0011 95.3008) rotate(114.603) scale(28.4702 19.2118)">
<stop offset="0.50389" stop-color="#071401"/>
<stop offset="1" stop-color="#2E4722"/>
</radialGradient>
<radialGradient id="paint13_radial_2117_4467" cx="0" cy="0" r="1" gradientUnits="userSpaceOnUse" gradientTransform="translate(83.527 95.1429) rotate(138.708) scale(41.8574 27.9709)">
<stop offset="0.847612" stop-color="#756B68" stop-opacity="0"/>
<stop offset="1" stop-color="#756B68"/>
</radialGradient>
<radialGradient id="paint14_radial_2117_4467" cx="0" cy="0" r="1" gradientUnits="userSpaceOnUse" gradientTransform="translate(85.5814 98.772) rotate(99.1502) scale(18.3854 17.0505)">
<stop offset="0.401625" stop-color="#FBE0D4" stop-opacity="0.7"/>
<stop offset="1" stop-color="#EDD6CD" stop-opacity="0"/>
</radialGradient>
<radialGradient id="paint15_radial_2117_4467" cx="0" cy="0" r="1" gradientUnits="userSpaceOnUse" gradientTransform="translate(83.2108 79.8314) rotate(118.658) scale(43.1695 14.0898)">
<stop offset="0.707271" stop-color="#9F7654"/>
<stop offset="1" stop-color="#9F7654" stop-opacity="0"/>
</radialGradient>
<radialGradient id="paint16_radial_2117_4467" cx="0" cy="0" r="1" gradientUnits="userSpaceOnUse" gradientTransform="translate(71.516 77.1481) rotate(81.923) scale(20.2463 20.7594)">
<stop offset="0.702182" stop-color="#2B0603"/>
<stop offset="1" stop-color="#2B0603" stop-opacity="0"/>
</radialGradient>
<linearGradient id="paint17_linear_2117_4467" x1="58.4779" y1="2.48573" x2="58.4779" y2="20.6422" gradientUnits="userSpaceOnUse">
<stop stop-color="#5B412C"/>
<stop offset="1" stop-color="#1C1109"/>
</linearGradient>
<radialGradient id="paint18_radial_2117_4467" cx="0" cy="0" r="1" gradientUnits="userSpaceOnUse" gradientTransform="translate(45.1237 3.59553) rotate(28.3727) scale(22.4149 7.18823)">
<stop stop-color="#A67E5E"/>
<stop offset="1" stop-color="#7C5D43" stop-opacity="0"/>
</radialGradient>
<linearGradient id="paint19_linear_2117_4467" x1="84.7127" y1="3.09841" x2="84.7127" y2="27.2724" gradientUnits="userSpaceOnUse">
<stop stop-color="#5B412C"/>
<stop offset="1" stop-color="#1C1109"/>
</linearGradient>
<radialGradient id="paint20_radial_2117_4467" cx="0" cy="0" r="1" gradientUnits="userSpaceOnUse" gradientTransform="translate(69.9356 4.54362) rotate(25.7301) scale(24.5128 7.00835)">
<stop stop-color="#A67E5E"/>
<stop offset="1" stop-color="#7C5D43" stop-opacity="0"/>
</radialGradient>
<radialGradient id="paint21_radial_2117_4467" cx="0" cy="0" r="1" gradientUnits="userSpaceOnUse" gradientTransform="translate(88.5841 18.1177) rotate(13.7104) scale(21.3102 15.4117)">
<stop offset="0.901042" stop-color="#7C5D43" stop-opacity="0"/>
<stop offset="1" stop-color="#A67E5E"/>
</radialGradient>
<radialGradient id="paint22_radial_2117_4467" cx="0" cy="0" r="1" gradientUnits="userSpaceOnUse" gradientTransform="translate(102.531 60.609) rotate(81.8834) scale(10.0714 7.09053)">
<stop offset="0.401625" stop-color="#FBE0D4"/>
<stop offset="1" stop-color="#EDD6CD" stop-opacity="0"/>
</radialGradient>
<radialGradient id="paint23_radial_2117_4467" cx="0" cy="0" r="1" gradientUnits="userSpaceOnUse" gradientTransform="translate(100.511 62.4241) rotate(-41.764) scale(10.5939 7.54233)">
<stop offset="0.467806" stop-color="#C69076"/>
<stop offset="1" stop-color="#C69076" stop-opacity="0"/>
</radialGradient>
<radialGradient id="paint24_radial_2117_4467" cx="0" cy="0" r="1" gradientUnits="userSpaceOnUse" gradientTransform="translate(99.4042 61.4447) rotate(100.449) scale(9.36545 3.86401)">
<stop stop-color="#6C5245"/>
<stop offset="1" stop-color="#9E735E" stop-opacity="0"/>
</radialGradient>
<radialGradient id="paint25_radial_2117_4467" cx="0" cy="0" r="1" gradientUnits="userSpaceOnUse" gradientTransform="translate(82.6442 61.5865) rotate(-19.3348) scale(26.1376 16.1122)">
<stop offset="0.188088" stop-color="#FBE0D4" stop-opacity="0.8"/>
<stop offset="1" stop-color="#EDD6CD" stop-opacity="0"/>
</radialGradient>
<radialGradient id="paint26_radial_2117_4467" cx="0" cy="0" r="1" gradientUnits="userSpaceOnUse" gradientTransform="translate(50.7692 61.875) rotate(-152.152) scale(17.2909 10.6588)">
<stop offset="0.188088" stop-color="#FBE0D4" stop-opacity="0.7"/>
<stop offset="1" stop-color="#EDD6CD" stop-opacity="0"/>
</radialGradient>
<radialGradient id="paint27_radial_2117_4467" cx="0" cy="0" r="1" gradientUnits="userSpaceOnUse" gradientTransform="translate(75.3824 33.9411) scale(25.235 19.9128)">
<stop stop-color="#FBE0D4"/>
<stop offset="1" stop-color="#EDD6CD" stop-opacity="0"/>
</radialGradient>
<radialGradient id="paint28_radial_2117_4467" cx="0" cy="0" r="1" gradientUnits="userSpaceOnUse" gradientTransform="translate(100.617 63.4172) rotate(147.026) scale(19.4302 9.70247)">
<stop stop-color="#C69076"/>
<stop offset="1" stop-color="#C69076" stop-opacity="0"/>
</radialGradient>
<radialGradient id="paint29_radial_2117_4467" cx="0" cy="0" r="1" gradientUnits="userSpaceOnUse" gradientTransform="translate(39.5923 64.6799) rotate(47.5168) scale(17.5501 8.7691)">
<stop stop-color="#C69076"/>
<stop offset="1" stop-color="#C69076" stop-opacity="0"/>
</radialGradient>
<radialGradient id="paint30_radial_2117_4467" cx="0" cy="0" r="1" gradientUnits="userSpaceOnUse" gradientTransform="translate(70.3414 60.8873) rotate(-83.2817) scale(16.0722 4.65188)">
<stop stop-color="#A87B64"/>
<stop offset="1" stop-color="#B38771" stop-opacity="0"/>
</radialGradient>
<radialGradient id="paint31_radial_2117_4467" cx="0" cy="0" r="1" gradientUnits="userSpaceOnUse" gradientTransform="translate(75.6252 43.53) rotate(64.6258) scale(9.95741 13.4298)">
<stop stop-color="#B38771"/>
<stop offset="1" stop-color="#B38771" stop-opacity="0"/>
</radialGradient>
<radialGradient id="paint32_radial_2117_4467" cx="0" cy="0" r="1" gradientUnits="userSpaceOnUse" gradientTransform="translate(59.9767 43.7983) rotate(115.374) scale(9.95741 13.4298)">
<stop stop-color="#B38771"/>
<stop offset="1" stop-color="#B38771" stop-opacity="0"/>
</radialGradient>
<radialGradient id="paint33_radial_2117_4467" cx="0" cy="0" r="1" gradientUnits="userSpaceOnUse" gradientTransform="translate(72.5571 66.1442) rotate(86.2222) scale(4.45764 4.82399)">
<stop offset="0.557278" stop-color="#C89A86"/>
<stop offset="1" stop-color="#DDB7A6" stop-opacity="0"/>
</radialGradient>
<radialGradient id="paint34_radial_2117_4467" cx="0" cy="0" r="1" gradientUnits="userSpaceOnUse" gradientTransform="translate(63.1583 67.0168) rotate(90) scale(3.80505 4.02933)">
<stop offset="0.498314" stop-color="#C69A86"/>
<stop offset="1" stop-color="#DDB7A6" stop-opacity="0"/>
</radialGradient>
<radialGradient id="paint35_radial_2117_4467" cx="0" cy="0" r="1" gradientUnits="userSpaceOnUse" gradientTransform="translate(63.253 65.549) rotate(20.9735) scale(5.07755 4.60267)">
<stop offset="0.498314" stop-color="#C69A86"/>
<stop offset="1" stop-color="#DDB7A6" stop-opacity="0"/>
</radialGradient>
<radialGradient id="paint36_radial_2117_4467" cx="0" cy="0" r="1" gradientUnits="userSpaceOnUse" gradientTransform="translate(67.5462 67.2731) rotate(98.0589) scale(3.69992 5.13078)">
<stop offset="0.498314" stop-color="#D0A693"/>
<stop offset="1" stop-color="#DDB7A6" stop-opacity="0"/>
</radialGradient>
<radialGradient id="paint37_radial_2117_4467" cx="0" cy="0" r="1" gradientUnits="userSpaceOnUse" gradientTransform="translate(64.9575 55.4462) rotate(95.1379) scale(13.2337 5.09485)">
<stop stop-color="#BA9381"/>
<stop offset="1" stop-color="#FBE0D4"/>
</radialGradient>
<radialGradient id="paint38_radial_2117_4467" cx="0" cy="0" r="1" gradientUnits="userSpaceOnUse" gradientTransform="translate(61.9492 48.1643) rotate(75.6543) scale(14.1918 3.12537)">
<stop stop-color="#C29A86"/>
<stop offset="1" stop-color="#C29A86" stop-opacity="0"/>
</radialGradient>
<radialGradient id="paint39_radial_2117_4467" cx="0" cy="0" r="1" gradientUnits="userSpaceOnUse" gradientTransform="translate(67.441 66.0627) rotate(87.1276) scale(4.38103 6.45979)">
<stop offset="0.287803" stop-color="#C09783"/>
<stop offset="1" stop-color="#CFA997" stop-opacity="0"/>
</radialGradient>
<radialGradient id="paint40_radial_2117_4467" cx="0" cy="0" r="1" gradientUnits="userSpaceOnUse" gradientTransform="translate(68.8691 77.7669) rotate(90) scale(6.72164 11.1271)">
<stop offset="0.45991" stop-color="#C3515A"/>
<stop offset="1" stop-color="#761810"/>
</radialGradient>
<radialGradient id="paint41_radial_2117_4467" cx="0" cy="0" r="1" gradientUnits="userSpaceOnUse" gradientTransform="translate(69.4616 79.3588) scale(5.05722 1.51884)">
<stop stop-color="#F4C5CB"/>
<stop offset="1" stop-color="#D3979F" stop-opacity="0"/>
</radialGradient>
<radialGradient id="paint42_radial_2117_4467" cx="0" cy="0" r="1" gradientUnits="userSpaceOnUse" gradientTransform="translate(68.3158 75.6101) rotate(-0.47685) scale(4.74131 3.73076)">
<stop offset="0.692591" stop-color="#600C05"/>
<stop offset="1" stop-color="#600C05" stop-opacity="0"/>
</radialGradient>
<radialGradient id="paint43_radial_2117_4467" cx="0" cy="0" r="1" gradientUnits="userSpaceOnUse" gradientTransform="translate(73.3335 73.8344) rotate(21.3506) scale(6.87218 5.40928)">
<stop offset="0.788391" stop-color="#600C05"/>
<stop offset="1" stop-color="#600C05" stop-opacity="0"/>
</radialGradient>
<radialGradient id="paint44_radial_2117_4467" cx="0" cy="0" r="1" gradientUnits="userSpaceOnUse" gradientTransform="translate(62.4684 74.7814) rotate(159.817) scale(6.06158 4.77107)">
<stop offset="0.788391" stop-color="#600C05"/>
<stop offset="1" stop-color="#600C05" stop-opacity="0"/>
</radialGradient>
<radialGradient id="paint45_radial_2117_4467" cx="0" cy="0" r="1" gradientUnits="userSpaceOnUse" gradientTransform="translate(68.8494 74.4656) rotate(90) scale(4.2227 14.9792)">
<stop offset="0.28034" stop-color="#C3515A"/>
<stop offset="1" stop-color="#761810"/>
</radialGradient>
<radialGradient id="paint46_radial_2117_4467" cx="0" cy="0" r="1" gradientUnits="userSpaceOnUse" gradientTransform="translate(81.4987 49.9488) rotate(165.134) scale(6.62584 4.72192)">
<stop offset="0.744963" stop-color="#9C7269" stop-opacity="0"/>
<stop offset="0.864583" stop-color="#9C7269" stop-opacity="0.469031"/>
<stop offset="1" stop-color="#6C433B"/>
</radialGradient>
<radialGradient id="paint47_radial_2117_4467" cx="0" cy="0" r="1" gradientUnits="userSpaceOnUse" gradientTransform="translate(83.132 49.4065) rotate(90) scale(3.04117 3.04501)">
<stop offset="0.59375" stop-color="#BFDACD"/>
<stop offset="1" stop-color="#6E786F"/>
</radialGradient>
<radialGradient id="paint48_radial_2117_4467" cx="0" cy="0" r="1" gradientUnits="userSpaceOnUse" gradientTransform="translate(55.7364 50.2171) rotate(15.3537) scale(6.42024 4.71108)">
<stop offset="0.744963" stop-color="#9C7269" stop-opacity="0"/>
<stop offset="0.864583" stop-color="#9C7269" stop-opacity="0.469031"/>
<stop offset="1" stop-color="#6C433B"/>
</radialGradient>
<radialGradient id="paint49_radial_2117_4467" cx="0" cy="0" r="1" gradientUnits="userSpaceOnUse" gradientTransform="translate(56.2468 49.6753) rotate(90) scale(3.04117 3.04501)">
<stop offset="0.59375" stop-color="#BFDACD"/>
<stop offset="1" stop-color="#6E786F"/>
</radialGradient>
</defs>
</svg>
